<svg width="63" height="65" viewBox="0 0 63 65" fill="none" xmlns="http://www.w3.org/2000/svg">
<path d="M5.21203 4.99405C4.31388 5.46545 3.51791 6.10994 2.86999 6.89038C2.22207 7.67082 1.73501 8.57178 1.4369 9.54132C1.13878 10.5109 1.0355 11.5298 1.13301 12.5395C1.23052 13.5491 1.52689 14.5295 2.00503 15.4241L15.835 41.2611C16.8098 43.071 18.4609 44.4219 20.4281 45.019C22.3952 45.616 24.5187 45.4108 26.335 44.448C27.2331 43.9767 28.0289 43.3322 28.6767 42.5518C29.3246 41.7715 29.8116 40.8706 30.1097 39.9012C30.4078 38.9318 30.5111 37.9129 30.4137 36.9034C30.3163 35.8939 30.02 34.9136 29.542 34.019L15.706 8.18105C14.731 6.37131 13.0799 5.02058 11.1129 4.42353C9.14581 3.82648 7.02246 4.03157 5.20603 4.99405H5.21203Z" fill="#EAB875"/>
<path d="M29.538 34.019L15.704 8.18105C14.729 6.37131 13.0779 5.02058 11.1109 4.42353C9.14382 3.82648 7.02046 4.03157 5.20404 4.99405C5.00404 5.10205 4.80404 5.21905 4.61304 5.34205C7.71304 4.09705 11.57 5.80005 13.474 9.35705L27.312 35.1961C29.212 38.7531 28.479 42.8871 25.712 44.7411C25.921 44.6531 26.128 44.557 26.333 44.449C27.231 43.9775 28.0268 43.3329 28.6745 42.5523C29.3222 41.7718 29.8091 40.8708 30.107 39.9013C30.4049 38.9318 30.508 37.9129 30.4104 36.9033C30.3127 35.8938 30.0163 34.9135 29.538 34.019Z" fill="#C68D4E"/>
<path d="M15.077 25.0871C14.457 23.9291 11.609 24.229 8.71604 25.758C8.40137 25.9247 8.10137 26.0981 7.81604 26.2781L10.026 30.4071C10.337 30.2701 10.65 30.1191 10.965 29.9531C13.855 28.4241 15.697 26.2451 15.077 25.0871Z" fill="#FFF7AF"/>
<path d="M19.4771 33.306C18.8571 32.147 16.0091 32.448 13.1161 33.977C12.8021 34.143 12.5011 34.317 12.2161 34.497L14.4261 38.626C14.7367 38.4893 15.0497 38.338 15.3651 38.172C18.2581 36.643 20.1001 34.464 19.4801 33.306H19.4771Z" fill="#FFF7AF"/>
<path d="M4.31699 17.543C4.00199 17.709 3.70199 17.883 3.41699 18.063L5.62699 22.192C5.93766 22.0554 6.25066 21.904 6.56599 21.738C9.45899 20.209 11.301 18.031 10.681 16.872C10.061 15.713 7.21299 16.014 4.31999 17.543H4.31699Z" fill="#FFF7AF"/>
<path d="M31.0481 4.03101V9.24801C31.0482 9.28486 31.0556 9.32133 31.0699 9.35532C31.0841 9.3893 31.105 9.42014 31.1312 9.44606C31.1574 9.47198 31.1884 9.49248 31.2226 9.50637C31.2567 9.52026 31.2932 9.52727 31.3301 9.52701H39.0481C39.0849 9.52714 39.1213 9.52003 39.1553 9.50608C39.1893 9.49213 39.2203 9.47161 39.2464 9.44571C39.2725 9.4198 39.2932 9.38901 39.3074 9.35508C39.3216 9.32116 39.329 9.28478 39.3291 9.24801V4.03101C39.327 3.41031 39.0784 2.81586 38.6381 2.37837C38.1978 1.94087 37.6018 1.69615 36.9811 1.69801H33.3961C32.7754 1.69615 32.1794 1.94087 31.7391 2.37837C31.2988 2.81586 31.0502 3.41031 31.0481 4.03101Z" fill="#ED5176"/>
<path d="M36.98 1.69801H34.9191C35.4807 1.75818 35.9963 2.03626 36.3551 2.47249C36.714 2.90873 36.8873 3.46831 36.838 4.03101V9.24801C36.8439 9.31538 36.8231 9.38236 36.7801 9.43454C36.7371 9.48672 36.6753 9.51993 36.6081 9.52701H39.0471C39.0838 9.52714 39.1203 9.52003 39.1543 9.50608C39.1883 9.49213 39.2192 9.47161 39.2453 9.44571C39.2714 9.4198 39.2922 9.38901 39.3064 9.35508C39.3206 9.32116 39.3279 9.28478 39.3281 9.24801V4.03101C39.3259 3.41031 39.0774 2.81586 38.6371 2.37837C38.1968 1.94087 37.6007 1.69615 36.98 1.69801Z" fill="#BA365F"/>
<path d="M38.645 12.8231V9.52307H31.73V12.8231C31.7302 13.2306 31.6279 13.6317 31.4325 13.9894C31.2372 14.3471 30.955 14.6499 30.612 14.8701C29.412 15.6411 27.612 16.9061 27.104 17.8461C24.84 22.0731 25.979 37.0001 25.979 37.0001H44.397C44.397 37.0001 45.535 22.0731 43.272 17.8461C42.772 16.9061 40.965 15.6411 39.764 14.8701C39.4211 14.6499 39.139 14.347 38.9436 13.9893C38.7483 13.6317 38.6459 13.2306 38.646 12.8231H38.645Z" fill="#804C68"/>
<path d="M43.2721 17.8461C42.7721 16.9061 40.9651 15.6411 39.7651 14.8701C39.4221 14.6499 39.14 14.3471 38.9446 13.9894C38.7492 13.6317 38.6469 13.2306 38.6471 12.8231V9.52307H36.2821V12.8231C36.2721 13.2108 36.349 13.5959 36.5072 13.9501C36.6653 14.3043 36.9007 14.6187 37.1961 14.8701C38.3336 15.6692 39.3069 16.6796 40.0631 17.8461C41.9131 22.0731 40.9831 37.0001 40.9831 37.0001H44.3981C44.3981 37.0001 45.5351 22.0731 43.2721 17.8461Z" fill="#60364E"/>
<path d="M49.0851 23.3351H37.5541L34.0901 27.6611V47.9611H52.5481V27.6611L49.0851 23.3351Z" fill="#E9E9EA"/>
<path d="M49.085 23.3351H46.785L49.717 27.6611V47.9611H52.548V27.6611L49.085 23.3351Z" fill="#C5C4CC"/>
<path d="M38.6671 18.485H47.967C48.2613 18.4842 48.5438 18.6003 48.7525 18.8076C48.9612 19.015 49.079 19.2968 49.08 19.591V23.335H37.55V19.596C37.5499 19.4496 37.5788 19.3045 37.6349 19.1693C37.6911 19.0341 37.7735 18.9113 37.8773 18.808C37.9811 18.7047 38.1044 18.623 38.2399 18.5676C38.3754 18.5121 38.5206 18.4841 38.6671 18.485Z" fill="#C8E7F7"/>
<path d="M47.9711 18.485H45.7611C45.8953 18.4845 46.0282 18.5104 46.1523 18.5613C46.2765 18.6122 46.3894 18.687 46.4846 18.7816C46.5798 18.8761 46.6554 18.9885 46.7071 19.1123C46.7589 19.2361 46.7857 19.3688 46.7861 19.503V23.336H49.0861V19.596C49.0862 19.4497 49.0574 19.3049 49.0014 19.1698C48.9454 19.0346 48.8632 18.9119 48.7596 18.8087C48.656 18.7054 48.533 18.6237 48.3976 18.5681C48.2623 18.5126 48.1174 18.4843 47.9711 18.485Z" fill="#8CBCD6"/>
<path d="M25.788 27.1021L25.794 27.0971L31.423 22.5911C31.57 22.4739 31.704 22.3415 31.823 22.1961C32.0437 21.9278 32.2091 21.6184 32.3095 21.2859C32.41 20.9533 32.4435 20.6042 32.4083 20.2586C32.3731 19.913 32.2697 19.5778 32.1042 19.2723C31.9387 18.9669 31.7143 18.6973 31.444 18.4791C31.1366 18.229 30.7772 18.0507 30.392 17.9572C30.0069 17.8637 29.6058 17.8573 29.2178 17.9384C28.8299 18.0196 28.465 18.1862 28.1497 18.4263C27.8343 18.6663 27.5765 18.9737 27.395 19.3261L24.083 25.7111V25.7181C23.9647 25.946 23.9289 26.2078 23.9816 26.4591C24.0342 26.7104 24.1722 26.9358 24.372 27.0971C24.5729 27.2585 24.8229 27.3465 25.0805 27.3465C25.3382 27.3465 25.5882 27.2585 25.789 27.0971L25.788 27.1021Z" fill="#7FAB38"/>
<path d="M22.124 27.1021L22.1181 27.0971L16.485 22.5891C16.3381 22.4719 16.204 22.3395 16.085 22.1941C15.8644 21.9258 15.699 21.6165 15.5986 21.2839C15.4981 20.9514 15.4645 20.6022 15.4998 20.2566C15.535 19.911 15.6384 19.5758 15.8039 19.2704C15.9694 18.9649 16.1938 18.6953 16.4641 18.4771C16.7715 18.2271 17.1309 18.0488 17.5161 17.9553C17.9012 17.8617 18.3023 17.8553 18.6902 17.9365C19.0782 18.0176 19.4431 18.1843 19.7584 18.4243C20.0738 18.6644 20.3316 18.9718 20.5131 19.3241L23.826 25.7091V25.7161C23.944 25.9441 23.9796 26.2058 23.927 26.457C23.8743 26.7083 23.7366 26.9336 23.537 27.0951C23.336 27.2566 23.0859 27.3446 22.828 27.3446C22.5702 27.3446 22.3201 27.2566 22.119 27.0951L22.124 27.1021Z" fill="#7FAB38"/>
<path d="M30.7971 32.9601C31.0182 31.9387 31.0078 30.8808 30.7667 29.864C30.5257 28.8472 30.06 27.8973 29.4039 27.0839C28.7478 26.2705 27.9179 25.6144 26.9751 25.1636C26.0323 24.7129 25.0006 24.4789 23.9556 24.4789C22.9106 24.4789 21.8788 24.7129 20.936 25.1636C19.9932 25.6144 19.1634 26.2705 18.5073 27.0839C17.8511 27.8973 17.3855 28.8472 17.1444 29.864C16.9033 30.8808 16.8929 31.9387 17.1141 32.9601C19.9931 46.3461 20.0001 46.3781 21.1661 51.7991C21.2992 52.4404 21.6493 53.0163 22.1574 53.4297C22.6655 53.8431 23.3005 54.0688 23.9556 54.0688C24.6106 54.0688 25.2456 53.8431 25.7537 53.4297C26.2618 53.0163 26.6119 52.4404 26.7451 51.7991C27.9111 46.3781 27.9181 46.3451 30.7971 32.9601Z" fill="#FFCD34"/>
<path d="M23.956 24.532C23.6766 24.5327 23.3975 24.5497 23.12 24.583C25.851 24.994 27.968 27.927 27.968 31.483C27.968 31.9763 27.9261 32.4687 27.843 32.955C25.578 46.341 25.573 46.373 24.656 51.794C24.606 52.2534 24.4382 52.6922 24.169 53.0678C23.8997 53.4434 23.5381 53.7431 23.119 53.938C23.498 54.0549 23.8973 54.0913 24.2912 54.0448C24.6851 53.9984 25.0649 53.8701 25.4064 53.6682C25.7478 53.4663 26.0432 53.1953 26.2738 52.8726C26.5043 52.5498 26.6648 52.1824 26.745 51.794L30.797 32.955C31.018 31.9366 31.0072 30.8815 30.7654 29.8678C30.5236 28.8541 30.0571 27.9077 29.4003 27.0986C28.7435 26.2895 27.9132 25.6384 26.9708 25.1935C26.0285 24.7485 24.9981 24.5211 23.956 24.528V24.532Z" fill="#E69012"/>
<path d="M7.20508 38.66L7.72608 43.088L8.11608 46.3951L9.82708 60.9261C9.92488 61.727 10.3127 62.4643 10.9173 62.9987C11.5218 63.533 12.3012 63.8274 13.1081 63.826H49.6051C50.4119 63.8274 51.1913 63.533 51.7959 62.9987C52.4004 62.4643 52.7883 61.727 52.8861 60.9261L55.5071 38.661L7.20508 38.66Z" fill="#56D5A8"/>
<path d="M55.1721 41.487L55.5051 38.661H7.20508L7.53808 41.487H55.1721Z" fill="#56D5A8"/>
<path d="M52.359 38.66L49.738 60.925C49.6402 61.726 49.2524 62.4633 48.6479 62.9977C48.0433 63.532 47.2639 63.8263 46.457 63.825H49.6021C50.4089 63.8263 51.1883 63.532 51.7928 62.9977C52.3974 62.4633 52.7853 61.726 52.8831 60.925L55.504 38.66H52.359Z" fill="#56D5A8"/>
<path d="M3.78699 33.8661V36.9261C3.78858 37.3874 3.97329 37.8292 4.30051 38.1543C4.62773 38.4795 5.07068 38.6614 5.53199 38.6601H57.178C57.6393 38.6614 58.0822 38.4795 58.4095 38.1543C58.7367 37.8292 58.9214 37.3874 58.923 36.9261V33.8661C58.9214 33.4048 58.7367 32.963 58.4095 32.6378C58.0822 32.3127 57.6393 32.1308 57.178 32.1321H5.53199C5.07068 32.1308 4.62773 32.3127 4.30051 32.6378C3.97329 32.963 3.78858 33.4048 3.78699 33.8661Z" fill="#90B6E1"/>
<path d="M57.179 32.1311H53.979C54.4403 32.1298 54.8833 32.3117 55.2105 32.6368C55.5377 32.962 55.7224 33.4038 55.724 33.8651V36.9261C55.7224 37.3874 55.5377 37.8292 55.2105 38.1544C54.8833 38.4795 54.4403 38.6614 53.979 38.6601H57.179C57.6403 38.6614 58.0833 38.4795 58.4105 38.1544C58.7377 37.8292 58.9224 37.3874 58.924 36.9261V33.8651C58.9224 33.4038 58.7377 32.962 58.4105 32.6368C58.0833 32.3117 57.6403 32.1298 57.179 32.1311Z" fill="#5692D8"/>
<path d="M60.24 58.613C59.8946 58.662 59.5423 58.6084 59.227 58.4591C58.9117 58.3098 58.6471 58.0713 58.466 57.7731L45.944 37.038C45.824 36.8392 45.7446 36.6186 45.7102 36.3889C45.6759 36.1592 45.6874 35.925 45.744 35.6997C45.8006 35.4745 45.9013 35.2627 46.0401 35.0765C46.179 34.8904 46.3532 34.7335 46.553 34.615C46.9572 34.3738 47.4405 34.3022 47.8973 34.4157C48.3542 34.5292 48.7477 34.8187 48.992 35.221L61.512 55.9551C61.632 56.154 61.7115 56.3747 61.7458 56.6044C61.7801 56.8342 61.7687 57.0685 61.7121 57.2938C61.6555 57.5191 61.5548 57.731 61.416 57.9173C61.2771 58.1035 61.1028 58.2605 60.903 58.379C60.6997 58.5002 60.4743 58.5798 60.24 58.613Z" fill="#575B7A"/>
<path d="M2.47209 58.613C2.81756 58.6621 3.16981 58.6086 3.48517 58.4593C3.80053 58.31 4.06511 58.0714 4.24609 57.7731L16.7681 37.038C16.8881 36.8392 16.9675 36.6186 17.0018 36.3889C17.0362 36.1592 17.0247 35.925 16.9681 35.6997C16.9115 35.4745 16.8108 35.2627 16.672 35.0765C16.5332 34.8904 16.3588 34.7335 16.1591 34.615C15.7548 34.3738 15.2716 34.3022 14.8148 34.4157C14.3579 34.5292 13.9644 34.8187 13.7201 35.221L1.19809 55.9551C1.07809 56.154 0.998625 56.3747 0.964288 56.6044C0.92995 56.8342 0.941416 57.0685 0.998024 57.2938C1.05463 57.5191 1.15526 57.731 1.29412 57.9173C1.43298 58.1035 1.60732 58.2605 1.80709 58.379C2.01098 58.5005 2.23706 58.5801 2.47209 58.613Z" fill="#575B7A"/>
<path d="M20.668 47.7841C20.668 48.2022 20.5019 48.6032 20.2063 48.8988C19.9106 49.1945 19.5096 49.3605 19.0915 49.3605C18.6734 49.3605 18.2724 49.1945 17.9768 48.8988C17.6811 48.6032 17.515 48.2022 17.515 47.7841V44.6841C17.515 44.2659 17.6811 43.8649 17.9768 43.5693C18.2724 43.2736 18.6734 43.1075 19.0915 43.1075C19.5096 43.1075 19.9106 43.2736 20.2063 43.5693C20.5019 43.8649 20.668 44.2659 20.668 44.6841V47.7841Z" fill="#56D5A8"/>
<path d="M26.8011 57.919C26.8011 58.3372 26.635 58.7382 26.3393 59.0338C26.0437 59.3295 25.6427 59.4955 25.2246 59.4955C24.8064 59.4955 24.4055 59.3295 24.1098 59.0338C23.8142 58.7382 23.6481 58.3372 23.6481 57.919V54.8191C23.6481 54.4009 23.8142 53.9999 24.1098 53.7043C24.4055 53.4086 24.8064 53.2426 25.2246 53.2426C25.6427 53.2426 26.0437 53.4086 26.3393 53.7043C26.635 53.9999 26.8011 54.4009 26.8011 54.8191V57.919Z" fill="#56D5A8"/>
<path d="M32.9321 47.784C32.9217 48.1953 32.751 48.5862 32.4565 48.8734C32.162 49.1605 31.7669 49.3213 31.3555 49.3213C30.9442 49.3213 30.5491 49.1605 30.2546 48.8734C29.96 48.5862 29.7894 48.1953 29.7791 47.784V44.684C29.7894 44.2728 29.96 43.8819 30.2546 43.5947C30.5491 43.3075 30.9442 43.1467 31.3555 43.1467C31.7669 43.1467 32.162 43.3075 32.4565 43.5947C32.751 43.8819 32.9217 44.2728 32.9321 44.684V47.784Z" fill="#56D5A8"/>
<path d="M39.065 57.919C39.0546 58.3302 38.884 58.7212 38.5895 59.0084C38.295 59.2956 37.8999 59.4563 37.4885 59.4563C37.0771 59.4563 36.682 59.2956 36.3875 59.0084C36.093 58.7212 35.9223 58.3302 35.912 57.919V54.819C35.9223 54.4078 36.093 54.0169 36.3875 53.7297C36.682 53.4425 37.0771 53.2817 37.4885 53.2817C37.8999 53.2817 38.295 53.4425 38.5895 53.7297C38.884 54.0169 39.0546 54.4078 39.065 54.819V57.919Z" fill="#56D5A8"/>
<path d="M45.198 47.784C45.1877 48.1953 45.0171 48.5862 44.7225 48.8734C44.428 49.1605 44.0329 49.3213 43.6216 49.3213C43.2102 49.3213 42.8151 49.1605 42.5206 48.8734C42.226 48.5862 42.0554 48.1953 42.045 47.784V44.684C42.0554 44.2728 42.226 43.8819 42.5206 43.5947C42.8151 43.3075 43.2102 43.1467 43.6216 43.1467C44.0329 43.1467 44.428 43.3075 44.7225 43.5947C45.0171 43.8819 45.1877 44.2728 45.198 44.684V47.784Z" fill="#56D5A8"/>
<path d="M62.324 55.473L55.755 44.595L56.343 39.595H57.179C57.8898 39.5966 58.5721 39.3162 59.0762 38.8152C59.5803 38.3143 59.8651 37.6338 59.868 36.923V33.863C59.8649 33.1525 59.58 32.4722 59.0759 31.9715C58.5717 31.4708 57.8896 31.1904 57.179 31.192H53.491V27.692C53.491 27.683 53.491 27.673 53.491 27.663C53.4926 27.4516 53.422 27.246 53.291 27.08L50.033 23.012V19.591C50.0307 19.0474 49.8128 18.5269 49.4271 18.1438C49.0415 17.7606 48.5197 17.546 47.976 17.547H44.178C44.154 17.499 44.129 17.447 44.105 17.406C43.638 16.532 42.35 15.414 40.276 14.082C40.065 13.9471 39.8914 13.761 39.7715 13.5411C39.6516 13.3212 39.5892 13.0745 39.59 12.824V10.339C39.7944 10.2391 39.9667 10.084 40.0874 9.89113C40.2081 9.69831 40.2724 9.47554 40.273 9.24804V4.03104C40.2693 3.16085 39.9205 2.32768 39.3031 1.71442C38.6857 1.10116 37.8502 0.757917 36.98 0.760044H33.399C32.9676 0.75807 32.5399 0.841119 32.1405 1.00445C31.7412 1.16777 31.3779 1.40818 31.0714 1.71194C30.765 2.01569 30.5214 2.37684 30.3545 2.77476C30.1877 3.17268 30.1009 3.59957 30.099 4.03104V9.24704C30.0995 9.47456 30.1638 9.69738 30.2845 9.89023C30.4052 10.0831 30.5776 10.2382 30.782 10.338V12.823C30.7828 13.0738 30.7202 13.3206 30.6001 13.5407C30.48 13.7608 30.3063 13.947 30.095 14.082C29.752 14.302 29.369 14.557 28.978 14.833C28.978 14.76 28.978 14.687 28.978 14.614C28.978 13.2793 28.4478 11.9993 27.5041 11.0555C26.5603 10.1118 25.2802 9.58154 23.9455 9.58154C22.6108 9.58154 21.3308 10.1118 20.387 11.0555C19.4432 11.9993 18.913 13.2793 18.913 14.614C18.9134 14.9681 18.9516 15.3211 19.027 15.667C19.14 16.199 19.246 16.694 19.344 17.156C18.7601 16.9499 18.1331 16.8968 17.5229 17.0018C16.9126 17.1069 16.3394 17.3665 15.858 17.756C15.443 18.0927 15.1088 18.5182 14.8801 19.0012C14.6514 19.4842 14.5341 20.0124 14.5368 20.5468C14.5395 21.0812 14.6621 21.6081 14.8956 22.0888C15.1292 22.5695 15.4676 22.9916 15.886 23.324L18.695 25.573C17.8872 26.2776 17.232 27.14 16.7699 28.1072C16.3078 29.0744 16.0485 30.1259 16.008 31.197H11.508L11.308 30.83L11.396 30.784C14.413 29.189 16.93 26.57 15.901 24.65C14.872 22.73 11.281 23.339 8.26404 24.934L8.17604 24.981L6.91704 22.608L7.00504 22.562C8.38548 21.8623 9.62438 20.913 10.659 19.762C12.065 18.1 11.796 16.962 11.51 16.425C11.224 15.888 10.422 15.035 8.24904 15.26C6.71379 15.4697 5.23034 15.9606 3.87304 16.708L3.78604 16.76L2.83504 14.985C2.30833 14.0101 2.03334 12.9191 2.03504 11.811C2.03974 10.7479 2.29313 9.70052 2.77495 8.75276C3.25677 7.80501 3.95365 6.98313 4.80987 6.35284C5.6661 5.72255 6.65792 5.30133 7.70603 5.12287C8.75414 4.9444 9.82947 5.01364 10.846 5.32504C11.7018 5.58193 12.4982 6.00582 13.1892 6.57223C13.8802 7.13864 14.4522 7.83634 14.872 8.62504L16.499 11.66C16.6175 11.88 16.8182 12.0441 17.0573 12.1166C17.2963 12.1891 17.5543 12.1641 17.775 12.047C17.8843 11.9898 17.9811 11.9115 18.0599 11.8166C18.1388 11.7217 18.198 11.6122 18.2343 11.4943C18.2705 11.3764 18.2831 11.2525 18.2712 11.1298C18.2593 11.007 18.2232 10.8878 18.165 10.779L16.539 7.74004C15.4436 5.71339 13.5925 4.20105 11.3881 3.53179C9.18375 2.86253 6.80429 3.09047 4.76704 4.16604C3.75836 4.69362 2.86426 5.4159 2.13644 6.29114C1.40862 7.16638 0.861515 8.17721 0.526753 9.26519C0.19199 10.3532 0.0762122 11.4967 0.186114 12.6297C0.296016 13.7627 0.629416 14.8627 1.16704 15.866L9.37604 31.194H5.53304C4.8225 31.1924 4.14034 31.4728 3.63623 31.9735C3.13211 32.4742 2.84722 33.1545 2.84404 33.865V36.925C2.84695 37.6358 3.13173 38.3163 3.63588 38.8172C4.14002 39.3182 4.82233 39.5986 5.53304 39.597H6.36904L6.95804 44.597L0.38904 55.473C0.205102 55.7775 0.0832913 56.1153 0.0306425 56.4671C-0.0220063 56.8189 -0.0044504 57.1776 0.0822964 57.5225C0.169043 57.8674 0.323262 58.1918 0.536049 58.4768C0.748836 58.7618 1.01597 59.0018 1.32204 59.183C1.63432 59.3696 1.9808 59.4916 2.34104 59.542C2.46825 59.56 2.59657 59.569 2.72504 59.569C3.19337 59.5698 3.65397 59.4497 4.06231 59.2204C4.47066 58.9911 4.81293 58.6603 5.05604 58.26L7.99404 53.395L8.20604 55.201C8.23495 55.4496 8.36139 55.6764 8.55756 55.8317C8.75372 55.987 9.00353 56.058 9.25204 56.029C9.50055 56.0001 9.72739 55.8737 9.88267 55.6775C10.038 55.4814 10.1089 55.2316 10.08 54.983L9.58404 50.76L16.324 39.6H46.389L53.129 50.76L51.945 60.817C51.8761 61.39 51.5991 61.9177 51.1665 62.2997C50.734 62.6817 50.1761 62.8915 49.599 62.889H13.11C12.5333 62.8907 11.9761 62.6805 11.5441 62.2983C11.1122 61.9162 10.8357 61.3887 10.767 60.816L10.518 58.702C10.5037 58.579 10.4653 58.46 10.405 58.3518C10.3447 58.2436 10.2637 58.1483 10.1665 58.0714C10.0694 57.9945 9.95807 57.9375 9.83891 57.9037C9.71975 57.8698 9.59509 57.8597 9.47204 57.874C9.34899 57.8884 9.22997 57.9268 9.12176 57.9871C9.01356 58.0474 8.91829 58.1284 8.84141 58.2256C8.76452 58.3227 8.70752 58.434 8.67365 58.5532C8.63979 58.6723 8.62973 58.797 8.64404 58.92L8.89304 61.033C9.0177 62.063 9.51603 63.0114 10.2935 63.6984C11.071 64.3854 12.0735 64.7632 13.111 64.76H49.599C50.6369 64.763 51.6397 64.3848 52.4171 63.6972C53.1945 63.0096 53.6923 62.0605 53.816 61.03L54.716 53.386L57.657 58.26C58.031 58.8762 58.6335 59.3194 59.333 59.4931C60.0325 59.6667 60.7723 59.5567 61.391 59.187C61.6971 59.0058 61.9642 58.7658 62.177 58.4808C62.3898 58.1958 62.544 57.8714 62.6308 57.5265C62.7175 57.1816 62.7351 56.8228 62.6824 56.4711C62.6298 56.1193 62.508 55.7815 62.324 55.477V55.473ZM9.16004 26.586C12.199 24.979 14.105 25.267 14.245 25.527C14.385 25.787 13.558 27.519 10.519 29.127L10.431 29.173L9.07204 26.633L9.16004 26.586ZM4.76004 18.367C5.90504 17.7354 7.15481 17.316 8.44904 17.129C9.38704 17.029 9.80004 17.229 9.84904 17.309C9.89804 17.389 9.82604 17.842 9.21904 18.56C8.33634 19.5236 7.28596 20.3189 6.11904 20.907L6.03104 20.953L4.67204 18.414L4.75904 18.367H4.76004ZM54.165 41.96L52.736 39.595H54.443L54.165 41.96ZM35.034 31.194V27.988L38.009 24.273H48.629L50.591 26.724H46.316C46.1903 26.7199 46.0651 26.7411 45.9478 26.7864C45.8305 26.8317 45.7234 26.9001 45.6331 26.9875C45.5427 27.075 45.4708 27.1797 45.4218 27.2955C45.3727 27.4113 45.3474 27.5358 45.3474 27.6615C45.3474 27.7873 45.3727 27.9118 45.4218 28.0276C45.4708 28.1434 45.5427 28.2481 45.6331 28.3356C45.7234 28.423 45.8305 28.4914 45.9478 28.5367C46.0651 28.5819 46.1903 28.6032 46.316 28.599H51.599V31.199L35.034 31.194ZM48.142 19.594V22.401H38.499V19.591C38.4992 19.5688 38.5037 19.5469 38.5123 19.5264C38.5209 19.506 38.5335 19.4874 38.5492 19.4718C38.565 19.4562 38.5837 19.4439 38.6043 19.4355C38.6248 19.4272 38.6468 19.4229 38.669 19.423H47.969C47.9912 19.4229 48.0132 19.4272 48.0338 19.4355C48.0543 19.4439 48.073 19.4562 48.0888 19.4718C48.1046 19.4874 48.1172 19.506 48.1258 19.5264C48.1344 19.5469 48.1389 19.5688 48.139 19.591L48.142 19.594ZM33.399 2.63504H36.984C37.3553 2.63504 37.7114 2.78254 37.974 3.04509C38.2365 3.30765 38.384 3.66374 38.384 4.03504V8.58904H31.991V4.03104C31.991 3.65974 32.1385 3.30365 32.4011 3.04109C32.6636 2.77854 33.0197 2.63104 33.391 2.63104L33.399 2.63504ZM31.123 15.66C31.5991 15.3564 31.9908 14.9374 32.2618 14.442C32.5328 13.9466 32.6742 13.3907 32.673 12.826V10.46H37.699V12.819C37.697 13.3852 37.8383 13.9426 38.1099 14.4394C38.3815 14.9362 38.7744 15.3561 39.252 15.66C40.1539 16.2151 41.0058 16.8474 41.798 17.55H38.667C38.1233 17.5487 37.6013 17.7632 37.2156 18.1465C36.83 18.5297 36.6122 19.0503 36.61 19.594V23.011L33.352 27.08C33.2192 27.2457 33.1469 27.4517 33.147 27.664V31.198H31.893C31.8524 30.1269 31.593 29.0754 31.1309 28.1083C30.6688 27.1411 30.0138 26.2787 29.206 25.574L30.345 24.662L32.013 23.326C32.2124 23.1677 32.3944 22.9887 32.556 22.792C32.8551 22.4285 33.0792 22.0093 33.2152 21.5587C33.3513 21.1081 33.3967 20.6349 33.3488 20.1666C33.3009 19.6983 33.1607 19.2442 32.9362 18.8304C32.7118 18.4167 32.4075 18.0515 32.041 17.756C31.6745 17.4578 31.2528 17.2347 30.7999 17.0997C30.3471 16.9646 29.8721 16.9202 29.402 16.969C29.346 16.975 29.291 16.982 29.236 16.99C29.752 16.581 30.392 16.13 31.123 15.66ZM27.845 20.514C28.104 20.149 28.345 18.961 29.593 18.835C29.8169 18.8117 30.0432 18.8329 30.2589 18.8972C30.4746 18.9616 30.6755 19.0679 30.85 19.21C31.0481 19.3706 31.2075 19.5736 31.3165 19.8041C31.4255 20.0346 31.4812 20.2867 31.4796 20.5416C31.478 20.7966 31.419 21.0479 31.3071 21.277C31.1952 21.5061 31.0332 21.7071 30.833 21.865L29.162 23.202L27.58 24.469C27.4087 24.3817 27.234 24.3004 27.056 24.225L27.845 20.514ZM23.955 11.492C24.4235 11.4893 24.8866 11.5919 25.3101 11.7922C25.7336 11.9925 26.1066 12.2854 26.4017 12.6492C26.6968 13.013 26.9064 13.4385 27.015 13.8942C27.1236 14.3499 27.1284 14.8242 27.029 15.282L26.662 17.005C26.662 17.014 26.662 17.024 26.656 17.033L25.238 23.701C24.3885 23.5643 23.5226 23.5643 22.673 23.701L22.661 23.646C22.333 22.103 21.982 20.446 20.882 15.278C20.7822 14.8205 20.7867 14.3463 20.8951 13.8907C21.0035 13.4351 21.213 13.0097 21.5081 12.6461C21.8033 12.2825 22.1765 11.9899 22.6 11.7901C23.0236 11.5904 23.4867 11.4885 23.955 11.492ZM16.817 21.604C16.6747 21.4308 16.5681 21.231 16.5034 21.0164C16.4386 20.8017 16.4169 20.5763 16.4396 20.3533C16.4623 20.1302 16.5288 19.9138 16.6355 19.7166C16.7422 19.5193 16.8868 19.3451 17.061 19.204C17.2604 19.0435 17.493 18.9294 17.7419 18.87C17.9908 18.8106 18.2499 18.8074 18.5002 18.8607C18.7505 18.9139 18.9859 19.0223 19.1891 19.1778C19.3923 19.3334 19.5583 19.5323 19.675 19.76L20.068 20.519C20.422 22.186 20.623 23.129 20.814 24.033L20.855 24.224C20.677 24.2994 20.5024 24.3807 20.331 24.468C19.1092 23.5781 17.9362 22.6231 16.817 21.607V21.604ZM23.955 25.471C25.5047 25.4683 26.9963 26.0607 28.1219 27.1258C29.2475 28.1909 29.9213 29.6476 30.004 31.195H17.904C17.9868 29.6476 18.6605 28.1909 19.7862 27.1258C20.9118 26.0607 22.4034 25.4683 23.953 25.471H23.955ZM8.26904 39.597H9.97604L8.54804 41.96L8.26904 39.597ZM3.43704 57.29C3.35247 57.4303 3.22847 57.5426 3.08051 57.6128C2.93255 57.6831 2.76718 57.7082 2.60504 57.685C2.49477 57.6694 2.38871 57.6321 2.29304 57.575C2.1993 57.5195 2.11749 57.4459 2.05233 57.3585C1.98716 57.2712 1.93992 57.1718 1.91334 57.0661C1.88675 56.9604 1.88134 56.8505 1.89743 56.7427C1.91351 56.6349 1.95076 56.5314 2.00704 56.438L8.73704 45.294L12.437 39.175C12.45 39.155 12.463 39.134 12.474 39.113L14.532 35.705C14.6075 35.5827 14.713 35.4818 14.8385 35.4117C14.964 35.3417 15.1053 35.305 15.249 35.305C15.3998 35.3054 15.5477 35.3466 15.677 35.424C15.7707 35.4797 15.8524 35.5534 15.9175 35.6407C15.9826 35.7281 16.0298 35.8275 16.0563 35.9331C16.0829 36.0388 16.0884 36.1486 16.0723 36.2564C16.0563 36.3641 16.0192 36.4677 15.963 36.561L14.999 38.152C14.988 38.169 14.978 38.185 14.969 38.202L3.43704 57.29ZM17.456 37.722L17.578 37.522C17.7618 37.2176 17.8835 36.8797 17.9361 36.528C17.9887 36.1763 17.9711 35.8176 17.8844 35.4727C17.7976 35.1278 17.6435 34.8035 17.4308 34.5184C17.218 34.2334 16.951 33.9933 16.645 33.812C16.0263 33.4429 15.2869 33.3333 14.5877 33.5069C13.8885 33.6805 13.2862 34.1234 12.912 34.739L11.112 37.724H5.53304C5.32087 37.724 5.11738 37.6398 4.96735 37.4897C4.81733 37.3397 4.73304 37.1362 4.73304 36.924V33.864C4.73304 33.6519 4.81733 33.4484 4.96735 33.2984C5.11738 33.1483 5.32087 33.064 5.53304 33.064H57.18C57.3922 33.064 57.5957 33.1483 57.7457 33.2984C57.8958 33.4484 57.98 33.6519 57.98 33.864V36.924C57.98 37.1362 57.8958 37.3397 57.7457 37.4897C57.5957 37.6398 57.3922 37.724 57.18 37.724H51.604L49.804 34.739C49.5261 34.2797 49.1186 33.9126 48.6328 33.6839C48.1469 33.4552 47.6044 33.3751 47.0732 33.4536C46.5421 33.5322 46.0459 33.7658 45.647 34.1252C45.2481 34.4847 44.9643 34.9539 44.831 35.474C44.7434 35.8185 44.7255 36.177 44.7782 36.5285C44.8309 36.88 44.9532 37.2174 45.138 37.521L45.26 37.721L17.456 37.722ZM60.108 57.685C59.9464 57.7023 59.7832 57.6745 59.6364 57.6048C59.4896 57.5351 59.3649 57.4261 59.276 57.29L46.753 36.56C46.6968 36.4667 46.6595 36.3632 46.6434 36.2554C46.6273 36.1476 46.6328 36.0377 46.6593 35.932C46.6859 35.8263 46.7332 35.7269 46.7983 35.6396C46.8635 35.5522 46.9453 35.4786 47.039 35.423C47.2287 35.3096 47.4556 35.2758 47.6701 35.329C47.8846 35.3822 48.0693 35.5181 48.184 35.707L53.972 45.291V45.298L60.702 56.442C60.7724 56.5597 60.8125 56.6931 60.8187 56.83C60.8249 56.967 60.7971 57.1034 60.7376 57.227C60.6782 57.3506 60.589 57.4575 60.478 57.5381C60.3671 57.6187 60.2379 57.6706 60.102 57.689L60.108 57.685Z" fill="white"/>
<path d="M21.611 47.7841V44.6841C21.611 44.0157 21.3455 43.3748 20.873 42.9022C20.4004 42.4296 19.7594 42.1641 19.091 42.1641C18.4227 42.1641 17.7817 42.4296 17.3091 42.9022C16.8366 43.3748 16.571 44.0157 16.571 44.6841V47.7841C16.571 48.4524 16.8366 49.0934 17.3091 49.566C17.7817 50.0386 18.4227 50.304 19.091 50.304C19.7594 50.304 20.4004 50.0386 20.873 49.566C21.3455 49.0934 21.611 48.4524 21.611 47.7841ZM18.458 47.7841V44.6841C18.458 44.5162 18.5247 44.3552 18.6434 44.2365C18.7622 44.1177 18.9232 44.0511 19.091 44.0511C19.2589 44.0511 19.4199 44.1177 19.5387 44.2365C19.6574 44.3552 19.724 44.5162 19.724 44.6841V47.7841C19.724 47.9519 19.6574 48.1129 19.5387 48.2317C19.4199 48.3504 19.2589 48.4171 19.091 48.4171C18.9232 48.4171 18.7622 48.3504 18.6434 48.2317C18.5247 48.1129 18.458 47.9519 18.458 47.7841Z" fill="white"/>
<path d="M27.7441 57.915V54.815C27.7441 54.1467 27.4786 53.5057 27.006 53.0331C26.5334 52.5606 25.8925 52.295 25.2241 52.295C24.5558 52.295 23.9148 52.5606 23.4422 53.0331C22.9696 53.5057 22.7041 54.1467 22.7041 54.815V57.915C22.7041 58.5834 22.9696 59.2244 23.4422 59.697C23.9148 60.1696 24.5558 60.435 25.2241 60.435C25.8925 60.435 26.5334 60.1696 27.006 59.697C27.4786 59.2244 27.7441 58.5834 27.7441 57.915ZM24.5911 57.915V54.815C24.5976 54.6516 24.6671 54.4971 24.785 54.3838C24.9029 54.2705 25.0601 54.2072 25.2236 54.2072C25.3871 54.2072 25.5443 54.2705 25.6622 54.3838C25.7801 54.4971 25.8496 54.6516 25.8561 54.815V57.915C25.8496 58.0784 25.7801 58.233 25.6622 58.3463C25.5443 58.4596 25.3871 58.5229 25.2236 58.5229C25.0601 58.5229 24.9029 58.4596 24.785 58.3463C24.6671 58.233 24.5976 58.0784 24.5911 57.915Z" fill="white"/>
<path d="M33.8761 47.7841V44.6841C33.8761 44.0157 33.6106 43.3748 33.138 42.9022C32.6654 42.4296 32.0244 42.1641 31.356 42.1641C30.6877 42.1641 30.0467 42.4296 29.5741 42.9022C29.1016 43.3748 28.8361 44.0157 28.8361 44.6841V47.7841C28.8361 48.4524 29.1016 49.0934 29.5741 49.566C30.0467 50.0386 30.6877 50.304 31.356 50.304C32.0244 50.304 32.6654 50.0386 33.138 49.566C33.6106 49.0934 33.8761 48.4524 33.8761 47.7841ZM30.7231 47.7841V44.6841C30.7296 44.5207 30.799 44.3661 30.9169 44.2528C31.0349 44.1395 31.192 44.0762 31.3556 44.0762C31.5191 44.0762 31.6763 44.1395 31.7942 44.2528C31.9121 44.3661 31.9816 44.5207 31.9881 44.6841V47.7841C31.9816 47.9475 31.9121 48.102 31.7942 48.2153C31.6763 48.3286 31.5191 48.3919 31.3556 48.3919C31.192 48.3919 31.0349 48.3286 30.9169 48.2153C30.799 48.102 30.7296 47.9475 30.7231 47.7841Z" fill="white"/>
<path d="M40.0121 57.915V54.815C40.0121 54.1467 39.7465 53.5057 39.274 53.0331C38.8014 52.5606 38.1604 52.295 37.4921 52.295C36.8237 52.295 36.1827 52.5606 35.7101 53.0331C35.2376 53.5057 34.972 54.1467 34.972 54.815V57.915C34.972 58.5834 35.2376 59.2244 35.7101 59.697C36.1827 60.1696 36.8237 60.435 37.4921 60.435C38.1604 60.435 38.8014 60.1696 39.274 59.697C39.7465 59.2244 40.0121 58.5834 40.0121 57.915ZM36.859 57.915V54.815C36.8655 54.6516 36.935 54.4971 37.0529 54.3838C37.1709 54.2705 37.328 54.2072 37.4915 54.2072C37.6551 54.2072 37.8123 54.2705 37.9302 54.3838C38.0481 54.4971 38.1176 54.6516 38.1241 54.815V57.915C38.1176 58.0784 38.0481 58.233 37.9302 58.3463C37.8123 58.4596 37.6551 58.5229 37.4915 58.5229C37.328 58.5229 37.1709 58.4596 37.0529 58.3463C36.935 58.233 36.8655 58.0784 36.859 57.915Z" fill="white"/>
<path d="M46.142 47.7841V44.6841C46.142 44.0157 45.8766 43.3748 45.404 42.9022C44.9314 42.4296 44.2904 42.1641 43.622 42.1641C42.9537 42.1641 42.3127 42.4296 41.8401 42.9022C41.3675 43.3748 41.1021 44.0157 41.1021 44.6841V47.7841C41.1021 48.4524 41.3675 49.0934 41.8401 49.566C42.3127 50.0386 42.9537 50.304 43.622 50.304C44.2904 50.304 44.9314 50.0386 45.404 49.566C45.8766 49.0934 46.142 48.4524 46.142 47.7841ZM42.989 47.7841V44.6841C42.989 44.5162 43.0557 44.3552 43.1744 44.2365C43.2931 44.1177 43.4542 44.0511 43.622 44.0511C43.7899 44.0511 43.9509 44.1177 44.0696 44.2365C44.1884 44.3552 44.255 44.5162 44.255 44.6841V47.7841C44.255 47.9519 44.1884 48.1129 44.0696 48.2317C43.9509 48.3504 43.7899 48.4171 43.622 48.4171C43.4542 48.4171 43.2931 48.3504 43.1744 48.2317C43.0557 48.1129 42.989 47.9519 42.989 47.7841Z" fill="white"/>
</svg>
