<svg width="375" height="247" viewBox="0 0 375 247" fill="none" xmlns="http://www.w3.org/2000/svg">
    <defs>
        <linearGradient id="paint0_linear" x1="263.691" y1="-35.4583" x2="245.588" y2="516.103" gradientUnits="userSpaceOnUse">
            <stop stop-color="#273773"/>
            <stop offset="1" stop-color="white"/>
        </linearGradient>
    </defs>
    <path d="M166.937 17.5323L162.706 14.98L157.475 23.6512L161.705 26.2036L166.937 17.5323Z" fill="#112261"/>
<path d="M171.234 17.0189L161.157 10.939L158.356 15.5805L168.433 21.6605L171.234 17.0189Z" fill="#112261"/>
<path d="M118.688 26.2042L122.919 23.6519L117.688 14.9806L113.457 17.533L118.688 26.2042Z" fill="#112261"/>
<path d="M111.96 21.662L122.037 15.582L119.236 10.9405L109.16 17.0204L111.96 21.662Z" fill="#112261"/>
<path d="M142.477 9.35889H137.536V20.4559H142.477V9.35889Z" fill="#112261"/>
<path d="M145.892 0.503906H134.123V12.3849H145.892V0.503906Z" fill="#112261"/>
<path d="M156.389 97.0868C178.283 88.1496 188.786 63.1563 179.849 41.2626C170.912 19.3689 145.919 8.86551 124.025 17.8027C102.131 26.7399 91.628 51.7332 100.565 73.6269C109.502 95.5206 134.496 106.024 156.389 97.0868Z" fill="#112261"/>
<path d="M140.197 94.748C160.803 94.748 177.508 78.0433 177.508 57.437C177.508 36.8307 160.803 20.126 140.197 20.126C119.591 20.126 102.886 36.8307 102.886 57.437C102.886 78.0433 119.591 94.748 140.197 94.748Z" fill="white"/>
<path d="M140.009 23.3369L140.199 57.4369L126.819 25.9869C119.016 29.2572 112.708 35.3107 109.118 42.9718C105.529 50.6328 104.915 59.3545 107.396 67.4428C109.876 75.5312 115.275 82.4088 122.542 86.7399C129.81 91.071 138.428 92.5463 146.722 90.8794C155.017 89.2124 162.396 84.5222 167.426 77.7197C172.456 70.9172 174.778 62.4879 173.941 54.0692C173.105 45.6504 169.169 37.843 162.898 32.1635C156.628 26.484 148.47 23.3378 140.01 23.3359L140.009 23.3369Z" fill="#273773"/>
<path d="M443.614 123.683C415.914 84.674 369.187 45.926 332.026 45.926C237.361 45.926 189.618 189.404 95.404 189.404C36.389 189.404 3.00402 147.63 -21.696 120.18V246.38C50.932 240.201 123.887 215.301 198.081 215.301C266.209 215.301 333.381 241.912 400.263 241.912C423.11 241.912 445.493 238.728 466.981 230.154L443.614 123.683Z" fill="url(#paint0_linear)"/>
<path d="M155.96 116.618C155.869 117.145 155.886 117.685 156.01 118.204C156.134 118.724 156.363 119.214 156.683 119.642C157.541 120.757 158.634 121.671 159.883 122.318H164.09V118.208C164.09 118.208 167.961 117.538 166.718 112.138C169.169 110.495 171.484 108.659 173.641 106.646L166.931 100.146L155.96 116.618Z" fill="white"/>
<path opacity="0.5" d="M158.224 121.235L164.093 122.318V118.208C164.093 118.208 167.964 117.538 166.721 112.138C169.172 110.495 171.487 108.659 173.644 106.646L170.706 103.803C166.786 108.309 163.819 111.234 163.819 111.234C165.324 115.083 161.036 119.688 158.224 121.235Z" fill="#273773"/>
<path d="M181.468 96.8868C186.068 88.1348 186.216 50.8998 186.216 50.8998L175.091 46.1538C168.491 54.0588 173.546 72.1138 176.271 78.3198C176.271 78.3198 171.057 84.2358 166.931 100.149L173.641 106.649C176.77 103.848 179.414 100.549 181.468 96.8868Z" fill="#56D5A8"/>
<path d="M176.271 78.321C174.605 80.48 173.212 82.8374 172.126 85.339C172.921 90.848 173.696 100.098 170.703 103.805L173.641 106.648C176.769 103.848 179.414 100.55 181.468 96.888C186.068 88.136 186.216 50.901 186.216 50.901L175.091 46.155C168.492 54.059 173.546 72.114 176.271 78.321Z" fill="#34B98B"/>
<path d="M158.482 144.935C158.147 144.935 157.813 144.907 157.482 144.853C152.555 144.029 149.56 137.279 150.808 129.808C151.297 126.478 152.71 123.353 154.886 120.786C157.019 118.415 159.535 117.334 162.009 117.747C166.938 118.571 169.933 125.319 168.685 132.792C167.523 139.761 163.074 144.935 158.482 144.935ZM160.992 119.378C160.053 119.441 159.138 119.701 158.307 120.141C157.476 120.581 156.746 121.191 156.166 121.932C154.208 124.256 152.938 127.081 152.501 130.088C151.412 136.627 153.774 142.488 157.768 143.161C161.732 143.808 165.905 139.051 166.997 132.51C168.089 125.971 165.726 120.11 161.728 119.44C161.485 119.399 161.239 119.378 160.992 119.377V119.378Z" fill="#112261"/>
<path d="M189.198 136.218L128.32 126.052L120.909 170.435L181.787 180.601L189.198 136.218Z" fill="#273773"/>
<path d="M161.362 145.331C156.362 145.331 152.3 139.167 152.3 131.59C152.3 124.013 156.363 117.849 161.362 117.849C166.361 117.849 170.424 124.011 170.424 131.59C170.424 139.169 166.359 145.331 161.362 145.331ZM161.362 119.565C157.311 119.565 154.015 124.965 154.015 131.59C154.015 138.215 157.315 143.613 161.362 143.613C165.409 143.613 168.708 138.22 168.708 131.59C168.708 124.96 165.413 119.565 161.362 119.565Z" fill="#273773"/>
<path d="M191.219 131.59H129.498V176.588H191.219V131.59Z" fill="#56D5A8"/>
<path d="M176.869 116.617C174.555 125.38 176.996 139.394 178.458 147.148C179.92 154.902 183.798 177.603 184.097 179.392C184.396 181.181 188.569 186.549 188.866 187.742C189.163 188.935 197.515 217.221 197.515 217.221C197.515 217.221 189.035 226.207 186.715 226.804C184.395 227.401 178.458 229.487 178.458 229.487V231.787H210.991C210.991 231.787 213.914 225.277 206.46 216.929C206.46 216.929 203.946 207.983 205.054 193.669C206.162 179.355 199.117 175.182 199.117 175.182C199.117 175.182 199.246 144.533 201.987 132.839V116.617H176.869Z" fill="#112261"/>
<path d="M201.988 125.694L189.47 128.668C190.614 138.006 194.804 171.368 195.238 174.2C195.672 177.032 202.273 180.592 202.123 196.322C202.034 205.57 205.055 213.135 206.46 216.922C206.46 216.922 203.946 207.976 205.054 193.662C206.162 179.348 199.117 175.175 199.117 175.175C199.117 175.175 199.246 144.526 201.987 132.832L201.988 125.694Z" fill="#112261"/>
<path d="M186.216 115.924V125.349C186.216 128.662 195.236 129.711 199.116 136.749C202.996 143.787 215.86 171.413 216.754 172.567C217.648 173.721 220.748 176.323 222.229 177.767C223.71 179.211 238.577 206.943 240.098 210.119C241.619 213.295 234.977 224.562 234.977 224.562L229.892 228.895V231.785H247.772L255.485 214.742C255.485 214.742 256.065 208.965 249.131 206.942C249.131 206.942 243.066 193.942 242.488 186.432C241.91 178.922 240.113 173.383 232.345 169.652L224.689 116.618L186.216 115.924Z" fill="#273773"/>
<path d="M159.884 122.318C161.057 122.912 162.295 123.37 163.572 123.682C164.084 123.612 166.438 121.941 166.232 120.032C166.026 118.123 160.373 119.674 160.373 119.674L158.221 121.236C158.723 121.671 159.283 122.035 159.884 122.318Z" fill="white"/>
<path opacity="0.5" d="M191.326 38.7119H184.726V47.9989H191.326V38.7119Z" fill="#273773"/>
<path d="M180.899 23.484L185.38 41.317C186.827 41.6991 188.348 41.6991 189.795 41.317C189.795 41.317 190.383 39.353 194.014 35.627L197.643 31.899L194.798 22.677L180.899 23.484Z" fill="white"/>
<path opacity="0.5" d="M194.012 35.627L197.643 31.899L194.798 22.677L180.898 23.484L183.29 33.008C186.775 33.3431 190.076 34.7294 192.755 36.983C193.129 36.559 193.542 36.108 194.012 35.627Z" fill="#273773"/>
<path d="M176.758 10.4599C176.77 10.1316 176.866 9.81184 177.036 9.53076C177.206 9.24968 177.445 9.01661 177.73 8.85355C178.015 8.69049 178.337 8.60283 178.665 8.59888C178.994 8.59492 179.318 8.67479 179.607 8.83093C179.57 8.1175 179.734 7.408 180.083 6.78418C180.431 6.16036 180.948 5.64759 181.575 5.30493C184.884 3.29893 186.391 4.48893 191.475 1.03093C195.475 -1.69007 200.227 6.52493 196.35 16.3729L183.336 21.3129H179.408C179.408 21.3129 176.966 11.2059 176.758 10.4599Z" fill="#232323"/>
<path d="M180.425 19.6159C180.425 19.6159 179.203 17.8519 177.982 18.5309C176.761 19.2099 178.117 22.2629 178.93 23.4839C179.743 24.7049 180.83 24.7039 180.898 23.4839C180.898 23.4839 183.341 31.6249 189.513 31.6249C195.685 31.6249 197.45 25.0429 196.567 17.9249C195.684 10.8069 194.194 8.63086 194.194 8.63086C194.194 8.63086 190.386 12.5359 185.594 9.79587C185.183 9.55051 184.701 9.45172 184.227 9.51566C183.753 9.57959 183.314 9.80246 182.983 10.1479C182.707 10.4429 182.522 10.8117 182.451 11.2096C182.38 11.6075 182.426 12.0175 182.583 12.3899L183.546 14.6679C183.546 14.6679 181.512 14.7349 181.446 16.2949C181.468 17.5063 181.674 18.7074 182.057 19.8569L180.425 19.6159Z" fill="white"/>
<path d="M187.269 46.8638L190.805 43.8328C190.805 43.8328 188.748 41.1798 189.271 40.0418C189.794 38.9038 197.459 31.2978 197.459 31.2978L197.24 30.5478C197.24 30.5478 197.765 29.4708 202.907 32.3348C202.907 32.3348 213.807 34.7348 220.485 40.5158C227.163 46.2968 225.231 64.1028 219.298 81.1628C213.365 98.2228 221.374 101.93 224.044 116.617H176.871C176.871 116.617 179.986 106.973 179.986 101.041C179.986 95.1088 169.752 52.5308 175.092 46.1538C180.432 39.7768 182.656 38.4388 182.656 38.4388C182.656 38.4388 182.056 35.5118 183.769 34.8978L184.785 38.9458V43.3358C184.78 44.9158 187.269 46.8638 187.269 46.8638Z" fill="#56D5A8"/>
<path d="M219.298 81.163C223.561 68.906 225.734 56.291 224.158 47.998L211.064 56.47C210.834 63.994 213.627 78.392 213.627 78.392C213.627 78.392 204.919 98.318 210.993 116.617H224.045C221.374 101.93 213.363 98.221 219.298 81.163Z" fill="#34B98B"/>
<path d="M254.338 125.102L207.104 117.679L199.742 164.529L246.976 171.952L254.338 125.102Z" fill="#273773"/>
<path d="M238.213 127.72L222.98 126.995L223.465 116.782C223.485 116.352 223.59 115.929 223.773 115.54C223.957 115.15 224.216 114.801 224.536 114.512C224.852 114.219 225.224 113.993 225.629 113.847C226.035 113.701 226.466 113.638 226.896 113.663L235.581 114.076C236.011 114.096 236.433 114.201 236.823 114.385C237.213 114.569 237.562 114.827 237.852 115.146C238.142 115.465 238.366 115.838 238.511 116.243C238.657 116.649 238.721 117.079 238.7 117.509L238.213 127.72ZM225.355 124.841L236.061 125.349L236.44 117.4C236.447 117.267 236.428 117.134 236.383 117.009C236.339 116.884 236.269 116.769 236.179 116.671C236.09 116.572 235.982 116.492 235.862 116.435C235.742 116.378 235.612 116.345 235.479 116.338L226.794 115.927C226.661 115.918 226.527 115.937 226.401 115.982C226.276 116.026 226.16 116.097 226.063 116.188C225.964 116.277 225.885 116.385 225.828 116.505C225.772 116.625 225.74 116.755 225.734 116.888L225.355 124.841Z" fill="#273773"/>
<path opacity="0.5" d="M247.569 121.405L214.268 119.821L212.219 162.884L245.52 164.469L247.569 121.405Z" fill="#273773"/>
<path d="M239.021 128.145H224.206V117.903C224.206 117.047 224.546 116.226 225.151 115.621C225.756 115.015 226.577 114.675 227.433 114.674H235.799C236.655 114.675 237.476 115.015 238.081 115.621C238.686 116.226 239.026 117.047 239.026 117.903L239.021 128.145ZM226.435 125.913H236.791V117.903C236.791 117.638 236.686 117.383 236.498 117.196C236.311 117.008 236.056 116.903 235.791 116.903H227.429C227.164 116.903 226.909 117.008 226.722 117.196C226.534 117.383 226.429 117.638 226.429 117.903L226.435 125.913Z" fill="#273773"/>
<path d="M258.625 121.409H204.604V164.521H258.625V121.409Z" fill="#56D5A8"/>
<path d="M237.543 75.0809C237.543 75.0809 227.307 46.8959 220.483 40.5159C216.559 36.8469 206.768 48.8049 213.031 64.9839C216.623 70.6816 221.233 75.6694 226.631 79.6979C226.631 79.6979 227.002 88.6399 230.731 95.1599H240.008C240.484 88.3707 239.647 81.5535 237.543 75.0809Z" fill="#56D5A8"/>
<path d="M230.728 95.161V106.895L224.69 111.738V116.617L226.471 118.398V119.19H236.354L237.578 116.214L238.219 107.757C239.203 103.621 239.802 99.4032 240.006 95.157L230.728 95.161Z" fill="white"/>
<path d="M-108.948 133.224C-84.938 142.646 -74.487 162.36 -42.248 162.36C25.513 162.36 84.661 103.806 84.579 35.1469C84.562 20.6009 75.829 14.0029 67.233 14.0029C48.957 14.0029 39.762 39.8529 39.762 64.2319C39.762 104.632 64.721 140.259 111.662 149.839" stroke="#273773" stroke-width="0.509" stroke-miterlimit="10" stroke-dasharray="2.04 2.04"/>
<path d="M249.966 52.407C252.073 52.9139 254.261 52.993 256.399 52.6397C258.538 52.2863 260.584 51.5077 262.416 50.3498C264.248 49.1919 265.83 47.6783 267.067 45.8985C268.304 44.1187 269.171 42.1089 269.618 39.988C270.415 36.2087 269.836 32.2692 267.986 28.8788C266.136 25.4884 263.136 22.87 259.527 21.4951C255.918 20.1203 251.936 20.0793 248.299 21.3797C244.662 22.6801 241.609 25.2363 239.69 28.588C239.179 29.436 238.366 30.0589 237.414 30.331L233.062 31.667L236.312 34.82C237.047 35.5029 237.495 36.4393 237.566 37.44C237.738 40.9396 239.039 44.2894 241.275 46.9876C243.51 49.6858 246.559 51.5871 249.966 52.407Z" fill="#273773"/>
<path d="M252.015 52.9039C254.123 53.4106 256.31 53.4896 258.449 53.1361C260.588 52.7826 262.634 52.0037 264.466 50.8457C266.299 49.6876 267.88 48.1739 269.117 46.3939C270.355 44.614 271.222 42.604 271.669 40.4829C272.466 36.7034 271.887 32.7637 270.037 29.3732C268.186 25.9827 265.186 23.3643 261.577 21.9894C257.967 20.6146 253.986 20.5737 250.349 21.8742C246.712 23.1747 243.658 25.731 241.739 29.0829C241.228 29.9308 240.415 30.5536 239.463 30.8259L235.113 32.1619L238.363 35.3149C239.097 35.9984 239.545 36.9345 239.617 37.9349C239.788 41.4346 241.089 44.7846 243.324 47.4832C245.559 50.1817 248.608 52.0836 252.015 52.9039Z" fill="white"/>
<path d="M255.496 44.787C269.222 34.762 258.739 28.406 255.496 35.051C252.252 28.405 241.772 34.762 255.496 44.787Z" fill="#273773"/>

</svg>
