<svg width="375" height="334" viewBox="0 0 375 334" fill="none" xmlns="http://www.w3.org/2000/svg">
    <defs>
        <linearGradient id="paint0_linear" x1="239.699" y1="-9.57771" x2="201.444" y2="483.085" gradientUnits="userSpaceOnUse">
            <stop stop-color="#273773"/>
            <stop offset="1" stop-color="white"/>
        </linearGradient>
    </defs>
<path d="M235.949 60.4271C143.649 46.9411 55.244 165.038 -29.077 216.147V293.632C10.792 275.908 50.412 262.432 94.253 262.432C186.029 262.432 283.503 329.714 368.083 329.714C378.354 329.714 388.628 329.214 398.91 328.338V202.157C351.986 150.011 335.347 74.9501 235.949 60.4271Z" fill="url(#paint0_linear)"/>
<path d="M-20.7581 155.47C29.3419 123.463 48.8079 39.0699 116.81 42.4419C135.781 43.3839 153.139 57.1969 153.139 83.9229C153.139 109.81 137.05 143.123 119.493 154.804C114.748 157.959 103.128 160.569 97.6619 154.794C92.5269 145.694 102.011 137.508 112.899 136.467C125.043 135.304 137.718 143.459 143.793 152.849" stroke="#273773" stroke-width="0.5" stroke-miterlimit="10" stroke-dasharray="2 2"/>
<path d="M199.148 144.734C202.288 176.193 211.416 185.429 211.416 185.429L244.889 169.804L243.231 168.004C241.589 166.219 239.53 164.868 237.238 164.073C234.947 163.277 232.494 163.061 230.099 163.444L227.239 163.901V160.068L246.411 146.984H255.839L240.629 179.841L257.061 201.141C257.061 201.141 266.796 209.966 283.229 201.141C283.229 201.141 292.469 206.685 303.191 204.11C305.249 203.58 307.171 202.619 308.83 201.292C310.49 199.965 311.849 198.301 312.819 196.41L323.699 175.883L294.183 109.55H200.987C200.987 109.55 198.332 136.571 199.148 144.734Z" fill="#56D5A8"/>
<path d="M155.606 188.196V167.138C155.606 164.26 156.345 161.43 157.751 158.918L178.242 122.284C180.025 119.096 182.795 116.573 186.136 115.096L252.294 85.8281C254.979 84.6404 257.882 84.0273 260.818 84.0281H462.088V150.446H421.315C415.875 150.446 410.495 151.583 405.52 153.783C400.545 155.984 396.085 159.199 392.425 163.224C388.797 167.215 384.384 170.415 379.463 172.623C374.542 174.831 369.218 176 363.825 176.057C350.56 176.2 334.433 176.28 334.433 175.827C334.433 175.557 331.888 176.206 328.581 177.165C317.845 180.251 306.727 181.807 295.556 181.786H289.512C280.499 181.785 271.754 184.849 264.712 190.474C252.583 200.162 237.521 205.439 221.998 205.44C218.157 205.44 214.474 203.914 211.759 201.198C209.043 198.483 207.517 194.8 207.517 190.959C207.517 188.215 208.298 185.527 209.768 183.209C211.237 180.891 213.335 179.038 215.817 177.867L246.425 163.409C257.333 158.256 266.143 149.515 271.381 138.647L276.339 128.36C276.609 127.8 276.744 127.184 276.734 126.561C276.724 125.939 276.568 125.328 276.279 124.777C275.99 124.226 275.577 123.75 275.071 123.387C274.566 123.024 273.983 122.784 273.368 122.687L256.748 120.063C256.748 120.063 249.826 134.291 230.981 130.831L200.981 142.368L184.829 163.135L176.691 183.35C175.459 186.408 173.341 189.027 170.609 190.872C167.877 192.717 164.656 193.703 161.359 193.703H161.119C160.395 193.704 159.678 193.562 159.01 193.286C158.341 193.01 157.733 192.604 157.221 192.093C156.709 191.581 156.303 190.974 156.025 190.305C155.748 189.636 155.606 188.92 155.606 188.196Z" fill="white"/>
<path d="M208.988 181.788H166.186V224.59H208.988V181.788Z" fill="#273773"/>
<path d="M139.071 310.505H181.873V267.703H139.071V310.505Z" fill="#56D5A8"/>
<path d="M90.969 267.704H133.771V224.902H90.969V267.704Z" fill="#56D5A8"/>
<path d="M133.771 257.407H90.969V267.704H133.771V257.407Z" fill="#273773"/>
<path d="M90.969 310.505H133.771V267.703H90.969V310.505Z" fill="#56D5A8"/>
<path d="M133.771 300.209H90.969V310.506H133.771V300.209Z" fill="#273773"/>
<path d="M181.872 300.209H139.07V310.506H181.872V300.209Z" fill="#273773"/>
<path d="M241.228 310.505H284.03V267.703H241.228V310.505Z" fill="#273773"/>
<path d="M193.127 310.505H235.929V267.703H193.127V310.505Z" fill="#273773"/>
<path d="M235.929 300.209H193.127V310.506H235.929V300.209Z" fill="#56D5A8"/>
<path d="M284.03 300.209H241.228V310.506H284.03V300.209Z" fill="#56D5A8"/>
<path d="M128.577 198.412C128.577 196.245 128.142 194.099 127.299 192.103C126.455 190.107 125.219 188.3 123.665 186.79C122.111 185.279 120.269 184.096 118.25 183.31C116.23 182.523 114.073 182.15 111.907 182.212C107.911 182.363 104.107 183.971 101.215 186.733C98.3229 189.495 96.5415 193.22 96.2071 197.205C95.9308 200.908 96.9341 204.594 99.0494 207.646C101.165 210.698 104.264 212.931 107.828 213.972C108.772 214.271 109.567 214.916 110.053 215.778L112.371 219.695L114.671 215.795C115.165 214.922 115.97 214.268 116.926 213.964C120.288 212.978 123.24 210.931 125.34 208.127C127.44 205.323 128.576 201.915 128.577 198.412Z" fill="#56D5A8"/>
<path d="M128.577 196.305C128.577 194.138 128.142 191.992 127.299 189.996C126.455 188 125.219 186.193 123.665 184.683C122.111 183.172 120.269 181.989 118.25 181.203C116.23 180.416 114.073 180.043 111.907 180.105C107.911 180.256 104.107 181.864 101.215 184.626C98.3229 187.388 96.5415 191.113 96.2071 195.098C95.9308 198.801 96.9341 202.487 99.0494 205.539C101.165 208.591 104.264 210.824 107.828 211.865C108.772 212.164 109.567 212.809 110.053 213.671L112.371 217.588L114.671 213.688C115.165 212.815 115.97 212.161 116.926 211.857C120.288 210.871 123.24 208.824 125.34 206.02C127.44 203.217 128.576 199.808 128.577 196.305Z" fill="white"/>
<path d="M112.371 204.079C126.093 194.057 115.614 187.702 112.371 194.346C109.128 187.702 98.647 194.06 112.371 204.079Z" fill="#273773"/>
<path d="M278.837 240.606C278.837 238.439 278.402 236.294 277.558 234.297C276.714 232.301 275.479 230.495 273.925 228.984C272.37 227.474 270.529 226.29 268.51 225.504C266.49 224.718 264.333 224.344 262.167 224.406C258.307 224.516 254.613 226 251.75 228.591C248.887 231.183 247.044 234.711 246.551 238.541C246.059 242.371 246.951 246.251 249.065 249.483C251.18 252.714 254.378 255.084 258.085 256.166C259.029 256.465 259.825 257.11 260.312 257.972L262.628 261.889L264.933 257.989C265.425 257.116 266.231 256.461 267.186 256.158C270.548 255.173 273.5 253.125 275.6 250.321C277.7 247.518 278.836 244.109 278.837 240.606Z" fill="#56D5A8"/>
<path d="M278.837 238.499C278.837 236.332 278.402 234.187 277.558 232.191C276.714 230.194 275.479 228.388 273.925 226.877C272.37 225.367 270.529 224.184 268.51 223.397C266.49 222.611 264.333 222.237 262.167 222.299C258.307 222.409 254.613 223.893 251.75 226.484C248.887 229.076 247.044 232.604 246.551 236.434C246.059 240.264 246.951 244.144 249.065 247.376C251.18 250.607 254.378 252.977 258.085 254.059C259.029 254.358 259.825 255.003 260.312 255.865L262.628 259.782L264.933 255.882C265.425 255.009 266.231 254.355 267.186 254.051C270.548 253.066 273.5 251.018 275.6 248.214C277.7 245.411 278.836 242.002 278.837 238.499Z" fill="white"/>
<path d="M270.591 236.915H264.991C264.733 236.915 264.487 236.812 264.305 236.63C264.123 236.448 264.02 236.201 264.02 235.944V230.344H261.23V235.944C261.23 236.201 261.127 236.448 260.945 236.63C260.763 236.812 260.516 236.915 260.259 236.915H254.659V239.705H260.259C260.386 239.705 260.513 239.73 260.631 239.779C260.749 239.827 260.856 239.899 260.946 239.989C261.036 240.079 261.108 240.186 261.156 240.304C261.205 240.422 261.23 240.548 261.23 240.676V246.276H264.02V240.676C264.02 240.548 264.045 240.422 264.094 240.304C264.142 240.186 264.214 240.079 264.304 239.989C264.394 239.899 264.501 239.827 264.619 239.779C264.737 239.73 264.863 239.705 264.991 239.705H270.591V236.915Z" fill="#273773"/>

</svg>
