<svg width="375" height="334" fill="none" xmlns="http://www.w3.org/2000/svg"><defs><linearGradient id="paint0_linear" x1="230.239" y1="-51.031" x2="214.585" y2="381.302" gradientUnits="userSpaceOnUse"><stop stop-color="#273773"/><stop offset="1" stop-color="#fff"/></linearGradient></defs><path d="M226.05 272.416c-132.387 0-168.585-136.212-244.888-136.212a69.685 69.685 0 00-18.568 2.609l-16.611 168.5c40.343-17.168 94.756-50.66 143.243-50.66 69.081 0 102.079 72.577 179.121 72.577 45.021 0 85.278-17.815 125.283-35.6v-77.486c-51.423 31.177-105.036 56.272-167.58 56.272z" fill="url(#paint0_linear)"/><path d="M283.014 175.002V89.398a7.225 7.225 0 00-7.225-7.225H90.529a7.225 7.225 0 00-7.225 7.225v85.604a7.225 7.225 0 007.225 7.225h185.26a7.225 7.225 0 007.225-7.225z" fill="#0D4DBC"/><path d="M274.315 84.976H92.002a5.895 5.895 0 00-5.895 5.895v82.658a5.895 5.895 0 005.895 5.895h182.313a5.895 5.895 0 005.895-5.895V90.871a5.895 5.895 0 00-5.895-5.895z" fill="#273773"/><path d="M277.408 167v-9.55a1.772 1.772 0 00-1.315-1.711l-2.573-.685a5.726 5.726 0 01-4.255-5.534v-34.643a5.724 5.724 0 014.255-5.534l2.573-.683a1.77 1.77 0 001.315-1.711V97.4a9.624 9.624 0 00-2.818-6.8 9.613 9.613 0 00-6.801-2.817H98.529A9.618 9.618 0 0088.91 97.4V167a9.622 9.622 0 009.619 9.619h169.26a9.62 9.62 0 009.619-9.619z" fill="#4D89F4"/><path d="M241.439 115.233h-33.934v33.934h33.934v-33.934z" fill="#56D5A8"/><path d="M200.126 115.233h-33.934v33.934h33.934v-33.934zM158.813 115.233h-33.934v33.934h33.934v-33.934z" fill="#273773"/><path d="M237.641 142.833a16.006 16.006 0 01-14.117-23.554 16.005 16.005 0 0118.764-7.773 16.007 16.007 0 016.673 26.638 15.895 15.895 0 01-11.32 4.689zm0-28.418a12.41 12.41 0 108.781 3.631 12.385 12.385 0 00-8.781-3.631z" fill="#fff"/><path d="M247.69 136.876a14.097 14.097 0 01-2.834 2.177c.092.127.192.248.3.362l8.517 8.517a3.598 3.598 0 002.531 1.022 3.593 3.593 0 002.547-6.103l-8.515-8.516a4 4 0 00-.362-.3 14.182 14.182 0 01-2.184 2.841z" fill="#fff"/><path d="M137.956 206.958s7.5 29.333 9.225 34.936a13.17 13.17 0 01-2.3 12.186c-1.726 2.175-19.275 27.6-21.289 44.56 0 0 6.5 3.028 10.157 5.045s9.457 2.019 9.457 2.019v4.8H108.34s-1.726-8.734 4.029-13.552c0 0 2.3-10.467 4.027-19.791 1.727-9.324 2.67-20.76 11.55-25.215l-11.55-22.254v-22.734h21.56z" fill="#273773"/><path d="M116.11 298.593s7.192-39.428 13.809-43.658c6.617-4.23 6.185-6.509 6.185-6.509-1.58-3.835-9.925-33.516-9.925-33.516l-9.782-3.079v17.863l11.55 22.254c-8.88 4.455-9.824 15.891-11.55 25.215-1.726 9.324-4.027 19.791-4.027 19.791-5.755 4.817-4.029 13.552-4.029 13.552h3.165c-.862-11.376 4.604-11.913 4.604-11.913z" fill="#112261"/><path d="M97.13 206.958v38.963s-7.756-6.6-21.014-7.9c-13.258-1.3-19.275-5.171-19.275-5.171s-4.6-5.616-8.631-5.041c0 0-23.015 17.838-18.124 34.812h4.6s1.439-5.007 5.466-7.683 9.782-2.693 15.248-7.287c0 0 2.46-.7 13.313 5.121a83.546 83.546 0 0021.211 8.41c5.177 1.439 7.479 3.957 11.508 3.957 4.029 0 8.343-3.669 9.207-5.4.864-1.731 12.945-32.837 15.248-36.988a35.084 35.084 0 017-8.654c1.915-1.827 0-7.139 0-7.139H97.129z" fill="#273773"/><path d="M181.518 132.824l-13.333 11.065s.24-11.425-2.741-16l4.267-7.94 11.807 12.875z" fill="#fff"/><path d="M169.709 119.947l-4.267 7.94a18.827 18.827 0 012.179 7.089c3.492-.974 7.434 3.209 8.591 2.251l2.777-2.305a8.144 8.144 0 013.287-1.646l2.4-.575-14.967-12.754z" fill="#4D89F4"/><path d="M188.933 112.544c2.288 4.51 1.355 17.943-4.257 20.154-5.612 2.211-11.6-7.588-12.205-6.952-.605.636-2.415.388-3.692-2.666-1.277-3.054-2.554-9.512 7.394-13.594 9.948-4.082 12.76 3.058 12.76 3.058z" fill="#fff"/><path d="M173.848 121.079h2.135s.8-5.2 5.871-5.2c0 0-2.935-3.469-1.334-5.07 1.601-1.601 8.671 4 10.273.668 1.602-3.332 6.4-7.472 1.734-10.673-4.666-3.2-15.743 3.334-22.012 3.2-6.269-.134-9.072 6.4-7.2 11.339a14.525 14.525 0 01.133 9.472l2 3.07 3.336-4.8s-1.873-5.226.4-6.537c3.062-1.769 4.664 4.531 4.664 4.531z" fill="#232323"/><path d="M158.006 127.886s.276-5.093 3.14-5.274c2.864-.181 9.771 11.942 6.773 33.336-2.998 21.394-29.48 32.765-29.963 40.056a62.41 62.41 0 000 10.953H97.132v-8.933c0-4.636 3.622-16.712 14.011-28.066s19.566-42.072 46.863-42.072z" fill="#56D5A8"/><path d="M165.444 142.662c-1.351-.47-1.338-2.76-2.706-7.335l-7.98 4.678s-14.871 25.122-28.4 41.066c-8.336 9.824-8.416 16.11-8.608 25.887h20.2a62.41 62.41 0 010-10.953c.483-7.291 26.964-18.662 29.963-40.056a63.094 63.094 0 00-.27-20.967l-.025-.006s1.232 8.868-2.174 7.686z" fill="#34B98B"/><path d="M161.608 175.807c-3.827-2.3-6.124-7.082-9.185-7.082 0 0 4.018-4.594 5.932-13.59 1.914-8.996 2.872-18.373-5.932-19.713-8.804-1.34-17.035 11.484-16.27 40.769 0 0 .586 12.228 37.241 12.247 0-2.583.008-5.51.019-8.345-3.365-.944-9.171-2.71-11.805-4.286z" fill="#56D5A8"/><path d="M184.677 180.782h-8.713s-1.024-.259-2.55-.689c-.011 2.531-.017 5.133-.019 7.5l.858.847h13.168a1.558 1.558 0 001.559-1.559v-3.8s-.569-2.299-4.303-2.299z" fill="#fff"/><path d="M194.214 186.971h-6.471a3.85 3.85 0 00-1.519-3.066 3.852 3.852 0 00-3.359-.655 3.818 3.818 0 00-2.693 2.7 3.86 3.86 0 003.719 4.878h6.756a2.13 2.13 0 011.578.8 2.799 2.799 0 004.813-2.569 2.872 2.872 0 00-2.824-2.088z" fill="#273773"/><path d="M294.811 289.931h-92.358a.23.23 0 01-.144-.037.232.232 0 01-.09-.119.23.23 0 01.055-.274l19.435-19.433-3.582-11.345 73.743-10.618 3.924-43.379-98.069-10.608-1.54-4.878a1.82 1.82 0 00-1.571-1.259 1.8 1.8 0 00-1.323.418 1.816 1.816 0 00-.562 1.933l24.863 78.73-17.878 17.878a3.882 3.882 0 00-.841 4.224 3.876 3.876 0 003.58 2.393h92.358a1.809 1.809 0 001.812-1.812 1.812 1.812 0 00-1.812-1.812v-.002zm-3.856-51.819l-14.232 1.161-.156-7.352 14.982-.39-.594 6.581zm-34.167-15.819l.944 8.309-15.145.394-1.739-9.076 15.94.373zm-16.287-2.194l-1.736-9.061 16.877 1.146.942 8.292-16.083-.377zm18.116 2.238l15.945.373.158 7.447-15.17.4-.933-8.22zm-.678 10.07l.946 8.319-14.209 1.159-1.741-9.086 15.004-.392zm-17.187-1.362l-15.113.394-2.567-9.934 15.922.373 1.758 9.167zm.346 1.8l1.76 9.188-14.184 1.155-2.571-9.95 14.995-.393zm2.1 10.977l1.764 9.2-13.261 1.914-2.573-9.963 14.07-1.151zm1.816-.148l14.07-1.148.946 8.33-13.273 1.911-1.743-9.093zm15.876-1.294l14.059-1.148.156 7.451-13.282 1.913-.933-8.216zm-.2-1.8l-.936-8.218 15-.392.156 7.451-14.22 1.159zm31.025-10.867l-15.185.4-.154-7.356 15.935.373-.596 6.583zm-15.376-8.775l-.156-7.358 16.89 1.148-.6 6.589-16.134-.379zm-1.814-.042l-16.114-.377-.934-8.21 16.889 1.148.159 7.439zm-17.254-10.416l-.931-8.2 17.834 1.928.156 7.43-17.059-1.158zm-1.837-.126l-17.02-1.155-1.732-9.044 17.812 1.926.94 8.273zm-18.889-1.281l-16.976-1.155-2.554-9.891 17.781 1.924 1.749 9.122zm.352 1.84l1.751 9.145-16.042-.377-2.56-9.912 16.851 1.144zm-16.176 8.722l-15.05-.352-3.386-10.724 15.855 1.077 2.581 9.999zm.472 1.825l2.588 10.026-14.137.371-3.395-10.747 14.944.35zm3.053 11.828l2.6 10.051-13.233 1.079-3.4-10.764 14.033-.366zm3.055 11.832l2.6 10.075-12.329 1.776-3.4-10.778 13.129-1.073zm49.615 3.306l-.156-7.339 14.028-1.142-.594 6.57-13.278 1.911zm16.316-35.5l-17.09-1.161-.156-7.354 17.842 1.928-.596 6.587zm-78.147-15.1l2.575 9.971-15.959-1.094-3.378-10.7 16.762 1.823z" fill="#273773"/><path d="M219.65 273.989a4.425 4.425 0 100-8.852 4.427 4.427 0 000 8.852z" fill="#273773"/><path d="M200.935 310.506a7.585 7.585 0 100-15.17 7.585 7.585 0 000 15.17z" fill="#112261"/><path d="M202.453 291.742v4.16a4.717 4.717 0 01-1.507 3.456l-1.448 1.344a2.857 2.857 0 00-.929 3.471 2.75 2.75 0 003.782.864l4.507-2.72a4.724 4.724 0 002.282-4.042v-6.532l-6.687-.001z" fill="#273773"/><path d="M294.187 302.921a7.586 7.586 0 11-15.171.003 7.586 7.586 0 0115.171-.003z" fill="#112261"/><path d="M288.123 291.742v4.16a4.717 4.717 0 01-1.507 3.456l-1.446 1.344c-1.024.95-1.593 2.267-.931 3.471a2.75 2.75 0 003.782.864l4.509-2.72a4.724 4.724 0 002.28-4.042v-6.532l-6.687-.001z" fill="#273773"/><path d="M261.034 162.995c13.1 6.634 27.636 12.369 41.373 12.369 30.144 0 45.105-28.65 45.105-58.619 0-9.974-3.357-18.192-13.3-18.192-9.746 0-14.987 10.429-14.987 23.175 0 20.04 12.953 45.809 41.725 45.809a74.193 74.193 0 0041-12.068" stroke="#273773" stroke-width=".5" stroke-miterlimit="10" stroke-dasharray="2 2"/></svg>