<svg width="36" height="36" viewBox="0 0 36 36" fill="none" xmlns="http://www.w3.org/2000/svg">
<path d="M35.075 15.7461C34.9688 15.2355 34.7343 14.7604 34.3937 14.3655C34.0531 13.9707 33.6175 13.669 33.128 13.4891C35.541 9.46309 35.875 5.68909 33.945 3.76309C33.4701 3.32337 32.9103 2.98539 32.3 2.76992C31.6896 2.55445 31.0417 2.46603 30.396 2.51009C30.2607 2.51129 30.1315 2.56616 30.0367 2.66265C29.9419 2.75914 29.8893 2.88933 29.8905 3.02459C29.8917 3.15985 29.9466 3.2891 30.0431 3.3839C30.1395 3.4787 30.2697 3.53129 30.405 3.53009H30.415C30.9236 3.48761 31.4356 3.5504 31.9189 3.71454C32.4021 3.87868 32.8464 4.14064 33.224 4.48409C33.6408 4.98808 33.9372 5.58051 34.0906 6.21631C34.2439 6.8521 34.2502 7.51449 34.109 8.15309C33.7841 9.99357 33.0821 11.747 32.047 13.3031C29.105 13.2471 26.1533 13.2084 23.192 13.1871C23.1724 11.4381 23.0649 9.69127 22.87 7.95309C22.857 7.83788 22.8052 7.73052 22.723 7.64872C22.6409 7.56691 22.5333 7.51555 22.418 7.50309C22.266 7.48709 22.118 7.47209 21.961 7.45709C23.8584 5.77345 26.1027 4.52739 28.535 3.80709C28.666 3.77328 28.7782 3.6888 28.847 3.57225C28.9157 3.45569 28.9353 3.31661 28.9015 3.18559C28.8677 3.05458 28.7832 2.94236 28.6667 2.87363C28.5501 2.80489 28.411 2.78528 28.28 2.81909C27.4233 3.04575 26.59 3.35278 25.791 3.73609C26.0075 3.01289 25.9825 2.23887 25.72 1.53109C25.634 1.347 25.5089 1.18384 25.3535 1.05295C25.1981 0.922052 25.016 0.826556 24.82 0.773092C24.22 0.608092 23.299 0.695092 22.272 2.04509C22.222 2.11009 22.172 2.17609 22.128 2.24509L22.111 2.18709C22.0238 1.70803 21.7802 1.27143 21.4183 0.945689C21.0563 0.619953 20.5966 0.423492 20.111 0.387092C19.8998 0.384248 19.6905 0.428343 19.4984 0.516193C19.3063 0.604044 19.136 0.733457 19 0.895092C18.6266 1.41476 18.4176 2.03444 18.4 2.67409C18.2338 2.39126 18.0068 2.14891 17.7354 1.96455C17.4641 1.78019 17.1552 1.65844 16.831 1.60809C16.6361 1.61214 16.4453 1.66395 16.2751 1.75897C16.1049 1.85399 15.9607 1.98933 15.855 2.15309C15.199 3.07909 15.189 5.08509 15.799 7.18709L15.341 7.19609C14.5493 6.2996 13.6269 5.52759 12.605 4.90609V3.78909C12.7226 3.76825 12.8292 3.70678 12.9061 3.6154C12.9831 3.52403 13.0255 3.40854 13.026 3.28909V1.84709C13.0255 1.4741 12.8771 1.11653 12.6133 0.852777C12.3496 0.589028 11.992 0.440621 11.619 0.440092H8.448C8.075 0.440621 7.71743 0.589028 7.45368 0.852777C7.18993 1.11653 7.04152 1.4741 7.041 1.84709V3.28709C7.04155 3.40669 7.08411 3.52229 7.16125 3.61368C7.23839 3.70508 7.34519 3.76646 7.463 3.78709V4.90709C6.02417 5.76 4.80552 6.93858 3.905 8.34809C3.69385 8.7159 3.59609 9.1379 3.624 9.56109C3.6986 10.8121 3.84484 12.0578 4.062 13.2921L3.435 13.3031C2.74255 13.3198 2.07612 13.5703 1.54413 14.0138C1.01214 14.4574 0.645899 15.0679 0.504996 15.7461C0.339806 16.5551 0.339806 17.3891 0.504996 18.1981C0.60791 18.6983 0.83428 19.1648 1.1635 19.5551C1.49273 19.9455 1.91435 20.2473 2.39 20.4331C2.446 21.4711 2.542 22.9481 2.699 24.6261C2.27766 25.8188 1.86666 27.0108 1.466 28.2021C1.2995 28.6992 1.31601 29.2395 1.51255 29.7255C1.70909 30.2116 2.07275 30.6114 2.538 30.8531C2.90031 31.0359 3.28159 31.1784 3.675 31.2781C4.05982 32.3683 4.77315 33.3124 5.71676 33.9804C6.66038 34.6484 7.78787 35.0074 8.944 35.0081H26.635C27.7911 35.0074 28.9186 34.6484 29.8622 33.9804C30.8058 33.3124 31.5192 32.3683 31.904 31.2781C32.2978 31.1781 32.6794 31.0353 33.042 30.8521C33.5074 30.6114 33.8714 30.2122 34.068 29.7265C34.2646 29.2408 34.281 28.7008 34.114 28.2041C33.714 27.0128 33.303 25.8208 32.881 24.6281C33.038 22.9501 33.134 21.4741 33.19 20.4351C33.6654 20.2493 34.0868 19.9476 34.4158 19.5574C34.7449 19.1673 34.9711 18.701 35.074 18.2011C35.2392 17.3921 35.2392 16.5581 35.074 15.7491L35.075 15.7461ZM21.9 8.47209C22.063 10.0381 22.154 11.6171 22.172 13.1791C18.3887 13.1571 14.6047 13.1634 10.82 13.1981C10.837 11.6301 10.928 10.0451 11.092 8.47209C14.6858 8.11408 18.3062 8.11408 21.9 8.47209ZM16.688 2.74309C16.725 2.69109 16.78 2.62809 16.831 2.62809C17.198 2.62809 17.968 3.67609 18.516 4.92009C18.5642 5.03633 18.6536 5.13065 18.7671 5.18493C18.8807 5.23921 19.0102 5.2496 19.131 5.21412C19.2517 5.17863 19.355 5.09978 19.4211 4.99271C19.4872 4.88563 19.5114 4.75791 19.489 4.63409C19.2247 3.60565 19.3243 2.51744 19.771 1.55409C19.8111 1.50351 19.8627 1.46317 19.9215 1.4364C19.9802 1.40963 20.0445 1.39718 20.109 1.40009C21.285 1.40009 21.324 3.74009 21.324 3.76209C21.3238 3.87926 21.3639 3.99293 21.4376 4.084C21.5113 4.17507 21.6141 4.23798 21.7288 4.26216C21.8434 4.28633 21.9629 4.27029 22.0671 4.21674C22.1713 4.16318 22.2539 4.07538 22.301 3.96809C22.666 3.14309 23.693 1.51609 24.544 1.75209C24.6016 1.76685 24.6549 1.79475 24.6998 1.83362C24.7448 1.87249 24.7801 1.92126 24.803 1.97609C24.9851 2.79083 24.8868 3.6432 24.524 4.39509C23.0976 5.22613 21.7664 6.21064 20.554 7.33109C19.3267 7.24109 18.0967 7.19209 16.864 7.18409C16.154 4.95309 16.321 3.26109 16.688 2.74309ZM11.581 4.68909H8.481V3.79709H11.581V4.68909ZM8.448 1.46009H11.62C11.7226 1.46036 11.8208 1.50121 11.8934 1.57373C11.9659 1.64625 12.0067 1.74453 12.007 1.84709V2.77709H8.061V1.84709C8.06126 1.74453 8.10212 1.64625 8.17464 1.57373C8.24716 1.50121 8.34544 1.46036 8.448 1.46009ZM5.068 13.1201C4.8565 11.9216 4.71427 10.7119 4.642 9.49709C4.62692 9.27394 4.67806 9.0513 4.789 8.85709C5.63501 7.56346 6.77198 6.48573 8.109 5.71009H11.96C12.6879 6.14459 13.3656 6.65803 13.981 7.24109C12.843 7.29243 11.7097 7.37843 10.581 7.49909C10.4639 7.5102 10.3542 7.56148 10.2705 7.64422C10.1869 7.72696 10.1344 7.83608 10.122 7.95309C9.92634 9.69923 9.81887 11.4541 9.8 13.2111C8.234 13.2278 6.67033 13.2491 5.109 13.2751C5.09186 13.2251 5.07816 13.174 5.068 13.1221V13.1201ZM3.423 20.6411H3.452L4.138 20.6531C3.93333 21.2024 3.73066 21.7524 3.53 22.3031C3.481 21.6831 3.45 21.1221 3.423 20.6411ZM26.635 33.9841H8.945C8.06608 33.9798 7.20679 33.7238 6.46884 33.2463C5.73089 32.7689 5.14517 32.09 4.781 31.2901C5.12179 31.2056 5.43742 31.0408 5.70151 30.8094C5.96559 30.5781 6.17046 30.2868 6.299 29.9601C6.593 29.2111 6.86 28.5211 7.115 27.8501C7.14042 27.7872 7.15303 27.7199 7.1521 27.652C7.15118 27.5842 7.13673 27.5172 7.1096 27.4551C7.08247 27.3929 7.04321 27.3367 6.99412 27.2899C6.94502 27.2431 6.88708 27.2065 6.82369 27.1824C6.76029 27.1583 6.69272 27.147 6.62492 27.1493C6.55712 27.1516 6.49046 27.1674 6.42884 27.1957C6.36722 27.2241 6.31188 27.2645 6.26606 27.3145C6.22024 27.3646 6.18486 27.4232 6.162 27.4871C5.908 28.1551 5.642 28.8421 5.349 29.5871C5.24825 29.8473 5.05757 30.0629 4.81155 30.1946C4.56553 30.3263 4.28044 30.3655 4.008 30.3051C3.65828 30.2233 3.31955 30.1001 2.999 29.9381C2.75183 29.8088 2.55898 29.5955 2.4552 29.3366C2.35142 29.0777 2.34355 28.7903 2.433 28.5261C3.741 24.6351 5.167 20.7161 6.673 16.8781C6.77391 16.6179 6.96456 16.4024 7.2105 16.2705C7.45645 16.1387 7.74145 16.0991 8.014 16.1591C8.36443 16.2411 8.70383 16.3647 9.025 16.5271C9.27227 16.6562 9.46517 16.8695 9.5688 17.1285C9.67243 17.3875 9.67995 17.675 9.59 17.9391C8.733 20.4861 7.822 23.0531 6.881 25.5831C6.83379 25.7099 6.83887 25.8502 6.89513 25.9732C6.95139 26.0962 7.05422 26.1919 7.181 26.2391C7.30777 26.2863 7.4481 26.2812 7.57113 26.225C7.69415 26.1687 7.78979 26.0659 7.837 25.9391C8.478 24.2181 9.105 22.4761 9.711 20.7391C12.393 20.7681 15.091 20.7831 17.791 20.7831C20.491 20.7831 23.191 20.7681 25.871 20.7391C26.948 23.8391 28.09 26.9281 29.282 29.9641C29.4105 30.2908 29.6154 30.5821 29.8795 30.8134C30.1436 31.0448 30.4592 31.2096 30.8 31.2941C30.4358 32.094 29.8501 32.7729 29.1122 33.2503C28.3742 33.7278 27.5149 33.9838 26.636 33.9881L26.635 33.9841ZM32.581 29.9381C32.2601 30.1003 31.9211 30.2239 31.571 30.3061C31.2986 30.3663 31.0136 30.327 30.7676 30.1953C30.5216 30.0636 30.3309 29.8482 30.23 29.5881C28.73 25.7591 27.301 21.8401 25.99 17.9401C25.9 17.676 25.9076 17.3885 26.0112 17.1295C26.1148 16.8706 26.3077 16.6572 26.555 16.5281C26.8759 16.3658 27.2149 16.2423 27.565 16.1601C27.6486 16.1407 27.7342 16.1309 27.82 16.1311C28.055 16.1331 28.284 16.2054 28.4776 16.3387C28.6711 16.472 28.8203 16.6602 28.906 16.8791C30.406 20.7081 31.835 24.6271 33.146 28.5271C33.2357 28.791 33.228 29.0783 33.1244 29.3371C33.0208 29.5958 32.828 29.809 32.581 29.9381ZM31.442 20.6531L32.127 20.6411H32.157C32.13 21.1221 32.095 21.6831 32.05 22.3041C31.85 21.7534 31.6473 21.2034 31.442 20.6541V20.6531ZM34.075 17.9951C33.9978 18.3709 33.8161 18.7172 33.5507 18.9943C33.2853 19.2713 32.9471 19.4678 32.575 19.5611C32.4284 19.5981 32.2781 19.6182 32.127 19.6211H32.11L31.064 19.6391C30.668 18.5891 30.2663 17.5441 29.859 16.5041C29.6676 16.0164 29.308 15.6134 28.8452 15.3678C28.3825 15.1222 27.8471 15.0503 27.336 15.1651C26.9069 15.2658 26.4913 15.4172 26.098 15.6161C25.6325 15.8567 25.2686 16.256 25.072 16.7417C24.8753 17.2274 24.859 17.7674 25.026 18.2641C25.1887 18.7488 25.3533 19.2334 25.52 19.7181C20.388 19.7711 15.196 19.7711 10.063 19.7181C10.2297 19.2334 10.3943 18.7491 10.557 18.2651C10.7236 17.7681 10.7066 17.2279 10.5093 16.7423C10.3119 16.2567 9.94709 15.8579 9.481 15.6181C9.0877 15.4191 8.67211 15.2677 8.243 15.1671C7.73185 15.0523 7.1965 15.1242 6.73376 15.3698C6.27102 15.6154 5.91142 16.0184 5.72 16.5061C5.312 17.5454 4.912 18.5901 4.52 19.6401L3.471 19.6221H3.456C3.3035 19.6191 3.15184 19.5986 3.004 19.5611C2.63182 19.4679 2.29355 19.2715 2.02816 18.9944C1.76278 18.7173 1.58107 18.3709 1.504 17.9951C1.3661 17.3197 1.3661 16.6235 1.504 15.9481C1.59777 15.4967 1.84151 15.0904 2.19557 14.7952C2.54962 14.5 2.99314 14.3332 3.454 14.3221C12.966 14.1391 22.612 14.1391 32.124 14.3221C32.5857 14.3333 33.03 14.5006 33.3844 14.7968C33.7387 15.0931 33.9822 15.5007 34.075 15.9531C34.213 16.6284 34.213 17.3247 34.075 18.0001V17.9951Z" fill="#273773"/>
</svg>
