<svg width="37" height="36" viewBox="0 0 37 36" fill="none" xmlns="http://www.w3.org/2000/svg">
<path d="M34.0851 26.352H32.4141L32.9751 25.791C33.1945 25.5715 33.3686 25.311 33.4873 25.0243C33.6061 24.7376 33.6672 24.4303 33.6672 24.12C33.6672 23.8096 33.6061 23.5023 33.4873 23.2156C33.3686 22.9289 33.1945 22.6684 32.9751 22.4489C32.7556 22.2295 32.4951 22.0554 32.2084 21.9367C31.9217 21.8179 31.6144 21.7568 31.3041 21.7568C30.9937 21.7568 30.6864 21.8179 30.3997 21.9367C30.113 22.0554 29.8525 22.2295 29.6331 22.449L28.2081 23.874C27.3521 23.4546 26.3883 23.307 25.4461 23.451L19.2051 24.381L19.7641 17.668C20.6618 18.268 21.7172 18.5885 22.7971 18.589C24.1079 18.6161 25.3819 18.1535 26.3699 17.2916C27.3579 16.4296 27.9891 15.2302 28.1401 13.9278C28.2911 12.6253 27.951 11.3134 27.1864 10.2483C26.4217 9.18317 25.2874 8.44141 24.0051 8.16795C24.0492 7.87603 24.0713 7.58119 24.0711 7.28595C24.0539 5.69389 23.4059 4.17364 22.2693 3.05875C21.1326 1.94385 19.6002 1.32535 18.0081 1.33895C17.1654 1.33894 16.3317 1.51113 15.5581 1.84495C14.9876 1.25918 14.3051 0.794089 13.5513 0.47731C12.7975 0.160532 11.9877 -0.00146398 11.1701 0.000952011C9.57796 -0.0126467 8.04548 0.60585 6.90884 1.72075C5.77219 2.83564 5.12421 4.35589 5.10706 5.94795C5.1072 6.68585 5.24699 7.41704 5.51905 8.10295C4.19047 8.29432 2.98495 8.98534 2.14839 10.0351C1.31183 11.0848 0.907269 12.4141 1.01723 13.7519C1.12719 15.0897 1.74339 16.3351 2.74013 17.2342C3.73687 18.1332 5.03906 18.6181 6.38106 18.59C7.02953 18.5901 7.67287 18.475 8.28106 18.25L8.63906 22.55C8.26306 22.4833 7.88192 22.4498 7.50006 22.45H7.38806C7.18535 22.0217 6.89176 21.6427 6.52771 21.3395C6.16366 21.0362 5.7379 20.8159 5.28005 20.694C5.20388 20.6723 5.12411 20.6661 5.04551 20.6758C4.9669 20.6856 4.89105 20.711 4.82247 20.7506C4.75389 20.7903 4.69397 20.8433 4.64628 20.9065C4.59859 20.9698 4.5641 21.0419 4.54486 21.1188C4.52562 21.1956 4.52202 21.2755 4.53427 21.3538C4.54653 21.432 4.57439 21.507 4.6162 21.5743C4.65801 21.6416 4.71291 21.6998 4.77765 21.7454C4.84239 21.791 4.91564 21.8232 4.99306 21.84C5.43783 21.9569 5.82726 22.2267 6.09306 22.602C5.0347 22.8354 4.0515 23.3297 3.23292 24.04C2.41434 24.7503 1.78635 25.654 1.40611 26.6689C1.02586 27.6838 0.905426 28.7777 1.05575 29.851C1.20608 30.9243 1.62239 31.943 2.26682 32.8144C2.91125 33.6858 3.76334 34.3822 4.74557 34.8403C5.72779 35.2984 6.80896 35.5036 7.89072 35.4372C8.97248 35.3709 10.0205 35.0351 10.9394 34.4605C11.8583 33.8858 12.6189 33.0905 13.1521 32.147L25.4441 33.98C25.6791 34.0151 25.9164 34.0329 26.1541 34.033C26.9794 34.0324 27.7899 33.8133 28.5031 33.398L29.8581 34.754C30.0775 34.9734 30.338 35.1475 30.6247 35.2662C30.9114 35.385 31.2187 35.4461 31.5291 35.4461C31.8394 35.4461 32.1467 35.385 32.4334 35.2662C32.7201 35.1475 32.9806 34.9734 33.2001 34.754C33.4195 34.5345 33.5936 34.274 33.7123 33.9873C33.8311 33.7006 33.8922 33.3933 33.8922 33.083C33.8922 32.7726 33.8311 32.4653 33.7123 32.1786C33.5936 31.8919 33.4195 31.6314 33.2001 31.412L32.8671 31.079H34.0851C34.7118 31.079 35.3128 30.83 35.7559 30.3868C36.1991 29.9437 36.4481 29.3427 36.4481 28.716C36.4481 28.0892 36.1991 27.4882 35.7559 27.0451C35.3128 26.6019 34.7118 26.353 34.0851 26.353V26.352ZM30.4691 23.285C30.5777 23.1704 30.7081 23.0787 30.8528 23.0153C30.9974 22.952 31.1532 22.9183 31.3111 22.9162C31.469 22.914 31.6257 22.9436 31.772 23.003C31.9182 23.0625 32.0511 23.1506 32.1628 23.2623C32.2744 23.3739 32.3625 23.5068 32.422 23.653C32.4814 23.7993 32.511 23.956 32.5089 24.1139C32.5067 24.2718 32.473 24.4276 32.4097 24.5722C32.3463 24.7169 32.2547 24.8473 32.1401 24.956L30.6541 26.442C30.339 25.7279 29.8694 25.0926 29.2791 24.582L29.2201 24.534L30.4691 23.285ZM8.53705 16.827C7.88268 17.2085 7.13855 17.409 6.38106 17.408C5.82793 17.4324 5.27559 17.3446 4.75733 17.1498C4.23907 16.9549 3.76564 16.6572 3.36559 16.2744C2.96554 15.8917 2.64716 15.4318 2.42964 14.9227C2.21213 14.4135 2.09999 13.8656 2.09999 13.312C2.09999 12.7583 2.21213 12.2104 2.42964 11.7012C2.64716 11.1921 2.96554 10.7322 3.36559 10.3495C3.76564 9.96673 4.23907 9.66897 4.75733 9.47415C5.27559 9.27933 5.82793 9.1915 6.38106 9.21595H6.42506C6.52973 9.21698 6.6328 9.19019 6.72373 9.13832C6.81465 9.08645 6.89017 9.01136 6.94255 8.92073C6.99494 8.8301 7.02231 8.72718 7.02187 8.6225C7.02143 8.51782 6.9932 8.41514 6.94006 8.32495C6.51366 7.60462 6.28849 6.78302 6.28806 5.94595C6.30519 4.66737 6.82863 3.44777 7.74361 2.55453C8.65859 1.6613 9.89043 1.16734 11.1691 1.18095C11.8921 1.17787 12.6069 1.33447 13.2624 1.63957C13.9178 1.94468 14.4979 2.39076 14.9611 2.94595C15.0477 3.05014 15.1675 3.1214 15.3004 3.14779C15.4333 3.17419 15.5712 3.15412 15.6911 3.09095C16.4063 2.71541 17.2022 2.51945 18.0101 2.51995C19.2887 2.50633 20.5205 3.0003 21.4355 3.89353C22.3505 4.78676 22.8739 6.00637 22.8911 7.28495C22.891 7.69421 22.8372 8.1017 22.7311 8.49695C22.7089 8.57956 22.7049 8.66599 22.7194 8.75028C22.7339 8.83457 22.7665 8.91471 22.815 8.98516C22.8635 9.05561 22.9267 9.1147 23.0003 9.15835C23.0738 9.20199 23.156 9.22915 23.2411 9.23795C24.3038 9.32435 25.2909 9.82216 25.9921 10.6254C26.6933 11.4287 27.0533 12.4739 26.9955 13.5386C26.9376 14.6033 26.4664 15.6033 25.6823 16.3258C24.8981 17.0484 23.8629 17.4362 22.7971 17.4069C22.2135 17.4078 21.6359 17.2886 21.1004 17.0567C20.5648 16.8248 20.0827 16.4852 19.6841 16.059C19.6107 15.98 19.5172 15.9226 19.4136 15.8929C19.31 15.8633 19.2003 15.8625 19.0963 15.8907C18.9922 15.9189 18.8979 15.9751 18.8235 16.053C18.7491 16.1309 18.6974 16.2278 18.6741 16.333C18.4295 17.3347 17.8762 18.2343 17.0924 18.9043C16.3087 19.5744 15.334 19.9811 14.3064 20.0669C13.2788 20.1527 12.2502 19.9133 11.3662 19.3824C10.4821 18.8516 9.78732 18.0563 9.38005 17.109C9.34765 17.0311 9.29896 16.9611 9.23726 16.9036C9.17556 16.8462 9.10228 16.8026 9.02233 16.7758C8.94239 16.7489 8.85763 16.7396 8.77376 16.7482C8.68989 16.7569 8.60884 16.7834 8.53606 16.826L8.53705 16.827ZM6.63705 23.703C6.80352 24.255 6.89665 24.8266 6.91406 25.403C6.91406 25.5597 6.97632 25.71 7.08715 25.8209C7.19799 25.9317 7.34831 25.994 7.50505 25.994C7.6618 25.994 7.81212 25.9317 7.92296 25.8209C8.03379 25.71 8.09605 25.5597 8.09605 25.403C8.08225 24.8086 7.99902 24.2179 7.84806 23.643C9.04021 23.721 10.171 24.1995 11.0571 25.001C10.6947 25.091 10.3547 25.2549 10.0586 25.4824C9.76248 25.7099 9.51649 25.996 9.33606 26.323C9.27303 26.4489 9.25708 26.5933 9.29106 26.73L9.60106 27.972L7.72006 27.22C7.57915 27.1636 7.42196 27.1636 7.28106 27.22L5.40006 27.972L5.71005 26.73C5.74403 26.5933 5.72808 26.4489 5.66505 26.323C5.48463 25.9962 5.23877 25.7102 4.94283 25.4827C4.64689 25.2552 4.30723 25.0912 3.94506 25.001C4.69795 24.319 5.63099 23.8677 6.63306 23.701L6.63705 23.703ZM7.50505 34.265C6.54444 34.2656 5.60161 34.0058 4.77692 33.5132C3.95222 33.0206 3.27651 32.3136 2.82169 31.4675C2.36688 30.6213 2.14997 29.6677 2.19406 28.7081C2.23814 27.7485 2.54157 26.8188 3.07206 26.018C3.61716 26.0521 4.12977 26.2889 4.50905 26.682L3.97405 28.801C3.94777 28.9065 3.95109 29.0172 3.98366 29.1209C4.01623 29.2246 4.07679 29.3174 4.15867 29.3889C4.24054 29.4604 4.34056 29.508 4.44772 29.5264C4.55489 29.5447 4.66504 29.5332 4.76605 29.493L7.50106 28.401L10.2351 29.495C10.3362 29.5348 10.4463 29.5461 10.5534 29.5274C10.6605 29.5087 10.7603 29.4609 10.842 29.3892C10.9236 29.3175 10.9839 29.2246 11.0162 29.1208C11.0485 29.017 11.0516 28.9064 11.0251 28.801L10.4941 26.6779C10.7296 26.4011 11.0473 26.2067 11.4011 26.123C11.5745 26.0724 11.7517 26.036 11.9311 26.014C12.4615 26.8148 12.765 27.7445 12.8091 28.7041C12.8531 29.6637 12.6362 30.6173 12.1814 31.4635C11.7266 32.3096 11.0509 33.0166 10.2262 33.5092C9.4015 34.0018 8.45867 34.2616 7.49805 34.261L7.50505 34.265ZM12.8961 25.324C12.1538 24.223 11.0937 23.3743 9.85706 22.891L9.57306 19.482C10.1731 20.0849 10.8939 20.5542 11.6881 20.859L11.6701 20.865L12.2571 22.625V22.635C12.2789 22.7118 12.3161 22.7833 12.3664 22.8454C12.4167 22.9074 12.479 22.9586 12.5496 22.9959C12.6202 23.0332 12.6977 23.0558 12.7773 23.0623C12.8569 23.0688 12.937 23.0591 13.0127 23.0338C13.0884 23.0085 13.1583 22.9682 13.218 22.9151C13.2777 22.8621 13.326 22.7975 13.3601 22.7253C13.3941 22.653 13.4132 22.5747 13.4161 22.4949C13.419 22.415 13.4057 22.3355 13.3771 22.261L13.0251 21.201C13.3165 21.2426 13.6106 21.2637 13.9051 21.264C14.2666 21.2623 14.6274 21.2289 14.9831 21.1639L14.6251 22.262C14.5964 22.3365 14.5831 22.416 14.586 22.4959C14.5889 22.5757 14.608 22.654 14.642 22.7263C14.6761 22.7985 14.7244 22.8631 14.7841 22.9161C14.8438 22.9692 14.9137 23.0095 14.9894 23.0348C15.0652 23.0601 15.1452 23.0698 15.2248 23.0633C15.3044 23.0568 15.3819 23.0342 15.4525 22.9969C15.5231 22.9596 15.5855 22.9084 15.6357 22.8464C15.686 22.7843 15.7232 22.7128 15.7451 22.636V22.626L16.3321 20.866C16.3432 20.8318 16.3513 20.7966 16.3561 20.761C17.1538 20.4184 17.8676 19.9066 18.4481 19.261L18.0061 24.561L12.8961 25.324ZM28.5111 31.955C28.1218 32.3 27.6617 32.5555 27.1631 32.7038C26.6646 32.852 26.1396 32.8893 25.6251 32.813L21.6831 32.225V29.538C21.6831 29.3812 21.6208 29.2309 21.51 29.1201C21.3991 29.0092 21.2488 28.947 21.0921 28.947C20.9353 28.947 20.785 29.0092 20.6742 29.1201C20.5633 29.2309 20.5011 29.3812 20.5011 29.538V32.047L13.6611 31.027C14.1683 29.5246 14.109 27.8886 13.4941 26.427L15.7741 26.087V30.127C15.7741 30.2046 15.7893 30.2814 15.819 30.3531C15.8487 30.4248 15.8923 30.49 15.9472 30.5449C16.002 30.5997 16.0672 30.6433 16.1389 30.673C16.2106 30.7027 16.2874 30.718 16.3651 30.718C16.4427 30.718 16.5195 30.7027 16.5912 30.673C16.6629 30.6433 16.7281 30.5997 16.783 30.5449C16.8378 30.49 16.8814 30.4248 16.9111 30.3531C16.9408 30.2814 16.9561 30.2046 16.9561 30.127V25.912L25.2251 24.679V28.356C25.2218 28.4355 25.2346 28.515 25.2628 28.5895C25.291 28.664 25.334 28.732 25.3891 28.7895C25.4443 28.8469 25.5105 28.8927 25.5838 28.9239C25.6571 28.9552 25.7359 28.9713 25.8156 28.9713C25.8952 28.9713 25.974 28.9552 26.0473 28.9239C26.1206 28.8927 26.1868 28.8469 26.242 28.7895C26.2971 28.732 26.3401 28.664 26.3683 28.5895C26.3965 28.515 26.4093 28.4355 26.4061 28.356V24.589C27.1837 24.6501 27.9205 24.9617 28.5061 25.477C28.96 25.8855 29.323 26.385 29.5715 26.9429C29.8199 27.5008 29.9483 28.1047 29.9483 28.7155C29.9483 29.3262 29.8199 29.9301 29.5715 30.488C29.323 31.0459 28.96 31.5454 28.5061 31.954L28.5111 31.955ZM32.3711 33.919C32.1494 34.1404 31.8489 34.2649 31.5356 34.2649C31.2222 34.2649 30.9217 34.1404 30.7001 33.919L29.4651 32.684C30.0551 32.1214 30.5078 31.4306 30.7881 30.665L32.3711 32.248C32.5923 32.4697 32.7165 32.7702 32.7165 33.0835C32.7165 33.3967 32.5923 33.6972 32.3711 33.919ZM34.0851 29.901H31.6851L31.0971 29.313C31.1526 28.7846 31.1334 28.251 31.0401 27.728L31.2301 27.538H34.0851C34.2431 27.5334 34.4005 27.5605 34.5478 27.6178C34.6952 27.6751 34.8296 27.7614 34.943 27.8716C35.0564 27.9818 35.1466 28.1136 35.2081 28.2592C35.2697 28.4048 35.3014 28.5613 35.3014 28.7194C35.3014 28.8776 35.2697 29.0341 35.2081 29.1797C35.1466 29.3253 35.0564 29.4572 34.943 29.5673C34.8296 29.6775 34.6952 29.7638 34.5478 29.8211C34.4005 29.8784 34.2431 29.9056 34.0851 29.901Z" fill="#D21958"/>
<path d="M25.8141 31.3109C26.1405 31.3109 26.4051 31.0463 26.4051 30.7199C26.4051 30.3935 26.1405 30.1289 25.8141 30.1289C25.4877 30.1289 25.2231 30.3935 25.2231 30.7199C25.2231 31.0463 25.4877 31.3109 25.8141 31.3109Z" fill="#D21958"/>
<path d="M21.2032 26.5949C21.0788 26.5701 20.9498 26.586 20.8351 26.6401C20.7205 26.6943 20.6263 26.7839 20.5664 26.8958C20.5066 27.0076 20.4844 27.1357 20.503 27.2611C20.5216 27.3866 20.58 27.5027 20.6697 27.5924C20.7594 27.6821 20.8755 27.7405 21.001 27.7591C21.1264 27.7777 21.2545 27.7555 21.3663 27.6957C21.4781 27.6358 21.5678 27.5416 21.622 27.427C21.6761 27.3123 21.692 27.1833 21.6672 27.0589C21.6443 26.9444 21.5881 26.8392 21.5055 26.7566C21.4229 26.674 21.3177 26.6178 21.2032 26.5949Z" fill="#D21958"/>
</svg>
