<svg width="35" height="36" viewBox="0 0 35 36" fill="none" xmlns="http://www.w3.org/2000/svg">
<path d="M34.0781 22.308H31.1931V18.846C31.1936 17.4987 30.9159 16.1657 30.3773 14.9307C29.8387 13.6957 29.0508 12.5853 28.0631 11.669C28.7462 10.1669 29.7437 8.82876 30.9881 7.745C31.0781 7.66858 31.1426 7.56636 31.1727 7.45214C31.2028 7.33793 31.1972 7.21722 31.1565 7.10632C31.1158 6.99542 31.0421 6.89967 30.9453 6.83202C30.8485 6.76436 30.7332 6.72805 30.6151 6.728C29.1118 6.69035 27.6225 7.02531 26.2801 7.703C26.5096 7.31775 26.7642 6.94796 27.0421 6.596C27.5351 5.96988 28.0833 5.38923 28.6801 4.861C28.7705 4.78473 28.8352 4.68253 28.8656 4.56822C28.896 4.45392 28.8905 4.33304 28.8499 4.22196C28.8093 4.11087 28.7356 4.01494 28.6387 3.94716C28.5417 3.87938 28.4263 3.84302 28.3081 3.843C26.8911 3.81321 25.4862 4.10843 24.2011 4.706C24.0391 3.5 23.4921 1.367 21.6421 0.441999C21.562 0.401953 21.4736 0.381104 21.3841 0.381104C21.2945 0.381104 21.2062 0.401953 21.1261 0.441999C19.2781 1.366 18.7261 3.495 18.5671 4.702C17.2814 4.10531 15.8761 3.81145 14.4591 3.843C14.3409 3.84305 14.2257 3.87936 14.1289 3.94702C14.032 4.01467 13.9583 4.11042 13.9176 4.22132C13.877 4.33222 13.8713 4.45293 13.9014 4.56714C13.9315 4.68136 13.996 4.78358 14.0861 4.86C14.6815 5.38902 15.2284 5.97035 15.7201 6.597C15.997 6.94678 16.2509 7.31422 16.4801 7.697C15.1379 7.02094 13.6494 6.68704 12.1471 6.725C12.0289 6.72505 11.9137 6.76136 11.8169 6.82902C11.72 6.89667 11.6463 6.99242 11.6056 7.10332C11.565 7.21422 11.5593 7.33493 11.5894 7.44914C11.6195 7.56336 11.684 7.66558 11.7741 7.742C13.019 8.82555 14.0168 10.1637 14.7001 11.666C13.7123 12.5823 12.9244 13.6927 12.3858 14.9277C11.8472 16.1627 11.5695 17.4957 11.5701 18.843V18.909C10.8853 19.0255 10.23 19.2748 9.64107 19.643C9.5775 19.6906 9.51067 19.7337 9.44107 19.772C9.50093 18.5617 9.79966 17.3753 10.3201 16.281C10.3639 16.218 10.3947 16.1469 10.4107 16.0719C10.4267 15.9968 10.4276 15.9193 10.4133 15.844C10.3989 15.7686 10.3697 15.6968 10.3274 15.6328C10.285 15.5689 10.2303 15.514 10.1664 15.4715C10.1026 15.4289 10.0309 15.3995 9.95556 15.385C9.88022 15.3705 9.80274 15.3711 9.72765 15.3869C9.65256 15.4027 9.58138 15.4333 9.51826 15.4769C9.45515 15.5206 9.40137 15.5763 9.36007 15.641C8.68576 16.9676 8.31223 18.4266 8.26607 19.914C8.0725 19.8587 7.89079 19.7682 7.73007 19.647C6.9733 19.1829 6.11566 18.9085 5.23007 18.847C4.50384 18.8392 3.7847 18.9904 3.12307 19.2899C2.46145 19.5895 1.87337 20.0301 1.40007 20.581C0.842335 21.2678 0.43884 22.0666 0.216953 22.9231C-0.00493355 23.7796 -0.0400209 24.6738 0.114071 25.545L0.475071 27.967C0.699241 29.503 1.20072 30.9854 1.95507 32.342C2.36752 33.1319 2.98495 33.7962 3.74259 34.2653C4.50022 34.7344 5.37014 34.9909 6.26107 35.008C6.68671 35.0077 7.11032 34.9492 7.52007 34.834L7.55907 34.822L8.52407 34.477C8.63165 34.438 8.74949 34.438 8.85707 34.477L9.82207 34.822L9.86107 34.834C10.2708 34.9492 10.6944 35.0077 11.1201 35.008C11.757 35.0028 12.3865 34.8706 12.9717 34.619C13.5569 34.3675 14.0861 34.0017 14.5281 33.543C17.1294 34.8179 20.0562 35.2738 22.9221 34.8507C25.788 34.4276 28.4581 33.1452 30.5801 31.173C31.7942 30.1464 32.7829 28.8798 33.4841 27.4529C34.1854 26.0259 34.584 24.4694 34.6551 22.881C34.654 22.7287 34.5928 22.5829 34.4847 22.4756C34.3766 22.3682 34.2304 22.308 34.0781 22.308ZM18.9471 19.416L21.3911 17.043L23.8401 19.42L21.3971 21.789L18.9471 19.416ZM20.2741 22.308H16.9741C16.8892 22.0724 16.789 21.8425 16.6741 21.62L18.1151 20.22L20.2741 22.308ZM24.6671 20.224L26.8141 22.308H22.5201L24.6671 20.224ZM22.2201 16.238L24.6621 13.867L27.1131 16.247L24.6701 18.616L22.2201 16.238ZM22.6201 10.279C23.6802 10.4318 24.7024 10.7815 25.6341 11.31L24.6581 12.258L22.6201 10.279ZM23.8291 13.062L21.3871 15.433L18.9471 13.064L21.3891 10.692L23.8291 13.062ZM18.1191 12.262L17.1351 11.307C18.0719 10.7783 19.0997 10.4303 20.1651 10.281L18.1191 12.262ZM18.1191 13.87L20.5601 16.239L18.1201 18.613L15.6771 16.246L18.1191 13.87ZM17.2871 19.418L16.0271 20.642L15.9751 20.579C15.1975 19.6714 14.1169 19.077 12.9341 18.906L14.8441 17.051L17.2871 19.418ZM16.9011 27.965L17.2621 25.543C17.366 24.8536 17.366 24.1524 17.2621 23.463H31.0901C30.6605 25.5387 29.5484 27.4108 27.9311 28.781C25.9731 30.5406 23.4385 31.5221 20.8061 31.54C19.2335 31.5336 17.6822 31.1766 16.2651 30.495C16.5618 29.6748 16.7755 28.8269 16.9031 27.964L16.9011 27.965ZM29.0601 22.309L30.0371 21.363V22.309H29.0601ZM30.0371 19.756L27.9371 21.791L25.4961 19.421L27.9401 17.051L30.0401 19.089L30.0371 19.756ZM29.9081 17.356L28.7671 16.248L29.4131 15.621C29.6393 16.1802 29.8059 16.7618 29.9101 17.356H29.9081ZM28.8811 14.529L27.9381 15.443L25.4871 13.063L26.6211 11.963C27.5364 12.6611 28.3045 13.5336 28.8811 14.53V14.529ZM29.0961 7.993C28.2925 8.85401 27.6288 9.83558 27.1291 10.902C26.6133 10.5277 26.0624 10.2045 25.4841 9.937C25.4911 9.847 25.5021 9.757 25.5161 9.667C26.5052 8.74871 27.7572 8.16331 29.0961 7.993ZM26.7901 5.108C25.5939 6.32311 24.7582 7.84626 24.3761 9.508C23.6971 9.28987 22.9962 9.14701 22.2861 9.082C22.2181 8.872 22.1321 8.634 22.0221 8.382C22.4873 7.48775 23.1657 6.72193 23.9973 6.15228C24.829 5.58263 25.7882 5.22671 26.7901 5.116V5.108ZM21.3841 1.623C22.8141 2.555 23.0631 4.691 23.1061 5.366C22.4271 5.8643 21.8435 6.48081 21.3831 7.186C21.1183 6.78109 20.8131 6.40415 20.4721 6.061C20.2203 5.80737 19.9495 5.57336 19.6621 5.361C19.7051 4.687 19.9551 2.553 21.3831 1.622L21.3841 1.623ZM15.9791 5.11C17.1047 5.23484 18.174 5.66829 19.0689 6.3625C19.9637 7.05672 20.6494 7.98469 21.0501 9.044C20.147 9.07386 19.2525 9.22901 18.3921 9.505C18.3741 9.38767 18.3517 9.271 18.3251 9.155L18.3451 9.136L18.3131 9.102C17.8663 7.60297 17.0654 6.23343 15.9781 5.109L15.9791 5.11ZM13.6691 7.994C15.0087 8.16367 16.2612 8.74954 17.2501 9.669C17.2641 9.758 17.2751 9.848 17.2821 9.937C16.7037 10.2045 16.1528 10.5277 15.6371 10.902C15.1368 9.83541 14.4724 8.85383 13.6681 7.993L13.6691 7.994ZM16.1521 11.957L17.2951 13.066L14.8471 15.444L13.8921 14.519C14.4687 13.5241 15.2364 12.653 16.1511 11.956L16.1521 11.957ZM13.3581 15.609L14.0181 16.248L12.8531 17.381C12.9559 16.7751 13.1235 16.1821 13.3531 15.612L13.3581 15.609ZM14.4201 31.781C14.105 32.3911 13.6317 32.9054 13.0497 33.2699C12.4678 33.6344 11.7985 33.8358 11.1121 33.853C10.8019 33.8529 10.4932 33.8111 10.1941 33.729L9.24907 33.391C8.89016 33.2629 8.49798 33.2629 8.13907 33.391L7.19307 33.729C6.37143 33.9339 5.50449 33.8525 4.73531 33.4984C3.96612 33.1442 3.34064 32.5385 2.96207 31.781C2.27667 30.5444 1.82193 29.1934 1.62007 27.794L1.25907 25.372C1.12969 24.6647 1.15371 23.938 1.32951 23.2408C1.50531 22.5436 1.82879 21.8923 2.27807 21.331C2.6442 20.9065 3.09882 20.5673 3.61 20.3372C4.12118 20.1071 4.67653 19.9916 5.23707 19.999C5.87252 20.0611 6.488 20.2553 7.04407 20.569C7.37931 20.8219 7.76784 20.9949 8.18007 21.075C8.15207 21.534 8.13607 21.938 8.12707 22.247C7.84702 22.1941 7.5845 22.0724 7.36307 21.893L7.36907 21.899C7.31545 21.8454 7.25178 21.8028 7.18172 21.7739C7.11165 21.7449 7.03655 21.73 6.96072 21.73C6.88488 21.73 6.80981 21.745 6.73977 21.7741C6.66974 21.8032 6.60613 21.8458 6.55257 21.8995C6.49901 21.9532 6.45657 22.0169 6.42765 22.087C6.39874 22.1571 6.38393 22.2322 6.38407 22.3081C6.38421 22.3839 6.3993 22.459 6.42847 22.529C6.45764 22.5989 6.50032 22.6625 6.55407 22.716C7.1459 23.2282 7.91113 23.4947 8.69307 23.461C9.47518 23.4946 10.2405 23.2277 10.8321 22.715C10.8858 22.6615 10.9284 22.5978 10.9576 22.5278C10.9867 22.4577 11.0017 22.3826 11.0018 22.3068C11.0018 22.2309 10.987 22.1558 10.958 22.0857C10.929 22.0156 10.8864 21.9519 10.8328 21.8983C10.7791 21.8447 10.7155 21.8021 10.6454 21.7731C10.5753 21.7441 10.5001 21.7292 10.4243 21.7293C10.3484 21.7294 10.2733 21.7444 10.2033 21.7735C10.1332 21.8026 10.0696 21.8453 10.0161 21.899C9.80109 22.0694 9.54891 22.1865 9.28007 22.241C9.29007 21.892 9.30807 21.484 9.33707 21.041C9.69914 20.951 10.0393 20.7888 10.3371 20.564C10.8932 20.2503 11.5086 20.0562 12.1441 19.994C12.7046 19.9866 13.26 20.1021 13.7711 20.3322C14.2823 20.5623 14.7369 20.9015 15.1031 21.326C15.5526 21.8881 15.8761 22.5403 16.0516 23.2384C16.227 23.9365 16.2504 24.6641 16.1201 25.372L15.7591 27.794C15.5581 29.1932 15.1044 30.5442 14.4201 31.781ZM29.8061 30.324C27.8866 32.1111 25.477 33.284 22.8863 33.6922C20.2956 34.1004 17.6421 33.7253 15.2661 32.615C15.3221 32.526 15.3761 32.436 15.4281 32.343C15.5701 32.0883 15.7034 31.8293 15.8281 31.566C17.386 32.3051 19.0877 32.6916 20.8121 32.698C23.7263 32.6802 26.5331 31.5955 28.7021 29.649C30.5696 28.0627 31.8286 25.8773 32.2641 23.466H33.4841C33.1646 26.1331 31.8495 28.5811 29.8021 30.32L29.8061 30.324Z" fill="#E8C433"/>
<path d="M28.308 25.77C28.6266 25.77 28.885 25.5116 28.885 25.193C28.885 24.8743 28.6266 24.616 28.308 24.616C27.9893 24.616 27.731 24.8743 27.731 25.193C27.731 25.5116 27.9893 25.77 28.308 25.77Z" fill="#E8C433"/>
<path d="M25.4232 28.655C25.7419 28.655 26.0002 28.3966 26.0002 28.078C26.0002 27.7593 25.7419 27.501 25.4232 27.501C25.1045 27.501 24.8462 27.7593 24.8462 28.078C24.8462 28.3966 25.1045 28.655 25.4232 28.655Z" fill="#E8C433"/>
<path d="M22.5382 26.924C22.8568 26.924 23.1152 26.6657 23.1152 26.347C23.1152 26.0284 22.8568 25.77 22.5382 25.77C22.2195 25.77 21.9612 26.0284 21.9612 26.347C21.9612 26.6657 22.2195 26.924 22.5382 26.924Z" fill="#E8C433"/>
<path d="M19.076 26.924C19.3947 26.924 19.653 26.6657 19.653 26.347C19.653 26.0284 19.3947 25.77 19.076 25.77C18.7574 25.77 18.499 26.0284 18.499 26.347C18.499 26.6657 18.7574 26.924 19.076 26.924Z" fill="#E8C433"/>
<path d="M20.807 30.3859C21.1256 30.3859 21.384 30.1276 21.384 29.8089C21.384 29.4903 21.1256 29.2319 20.807 29.2319C20.4883 29.2319 20.23 29.4903 20.23 29.8089C20.23 30.1276 20.4883 30.3859 20.807 30.3859Z" fill="#E8C433"/>
</svg>
