<svg width="36" height="36" viewBox="0 0 36 36" fill="none" xmlns="http://www.w3.org/2000/svg">
<path d="M35.789 25.0561C35.7901 24.5524 35.6914 24.0534 35.4985 23.588C35.3055 23.1227 35.0222 22.7002 34.665 22.3451L29.171 16.8541L29.152 16.8331L29.132 16.8151L27.301 14.9811C27.2378 14.9179 27.1628 14.8678 27.0803 14.8337C26.9977 14.7995 26.9093 14.7819 26.82 14.7819C26.7306 14.7819 26.6422 14.7995 26.5596 14.8337C26.4771 14.8678 26.4021 14.9179 26.339 14.9811C26.2758 15.0443 26.2257 15.1193 26.1915 15.2018C26.1573 15.2843 26.1397 15.3728 26.1397 15.4621C26.1397 15.5514 26.1573 15.6399 26.1915 15.7224C26.2257 15.805 26.2758 15.8799 26.339 15.9431L27.712 17.3161L25.441 19.5861C25.3227 19.7033 25.2515 19.8599 25.241 20.0261C25.1656 21.2283 24.654 22.3617 23.8023 23.2134C22.9505 24.0652 21.8172 24.5768 20.615 24.6521C20.4487 24.6626 20.2922 24.7338 20.175 24.8521L17.904 27.1231L11.314 20.5331L13.584 18.2631C13.7023 18.1459 13.7734 17.9893 13.784 17.8231C13.8606 16.6208 14.3728 15.4877 15.2246 14.6358C16.0765 13.7839 17.2097 13.2717 18.412 13.1951C18.5782 13.1846 18.7347 13.1134 18.852 12.9951L21.122 10.7251L21.983 11.5861C22.0461 11.6493 22.1211 11.6994 22.2036 11.7336C22.2862 11.7678 22.3746 11.7853 22.464 11.7853C22.5533 11.7853 22.6417 11.7678 22.7243 11.7336C22.8068 11.6994 22.8818 11.6493 22.945 11.5861C23.0081 11.5229 23.0582 11.448 23.0924 11.3654C23.1266 11.2829 23.1442 11.1944 23.1442 11.1051C23.1442 11.0158 23.1266 10.9273 23.0924 10.8448C23.0582 10.7623 23.0081 10.6873 22.945 10.6241L21.603 9.28111L19.958 7.63911C19.1114 6.75177 18.0631 6.08201 16.9022 5.6868C15.7413 5.29158 14.502 5.18259 13.29 5.36911C12.252 5.43311 11.648 5.45111 11.29 5.09811L10.42 4.22811L10.473 4.17511C10.5361 4.11196 10.5863 4.03697 10.6205 3.95444C10.6547 3.87191 10.6723 3.78345 10.6723 3.69411C10.6723 3.60477 10.6547 3.51631 10.6205 3.43377C10.5863 3.35124 10.5361 3.27626 10.473 3.21311L8.36495 1.10211C7.9008 0.640329 7.27269 0.381104 6.61795 0.381104C5.96321 0.381104 5.33511 0.640329 4.87095 1.10211L1.69195 4.28111C1.23017 4.74526 0.970947 5.37337 0.970947 6.02811C0.970947 6.68285 1.23017 7.31095 1.69195 7.77511L3.80295 9.88811C3.86605 9.95142 3.94101 10.0017 4.02354 10.036C4.10608 10.0703 4.19457 10.088 4.28395 10.0881C4.37334 10.088 4.46183 10.0703 4.54436 10.036C4.6269 10.0017 4.70186 9.95142 4.76495 9.88811L4.81795 9.83511L5.68795 10.7051C6.04095 11.0581 6.02195 11.6621 5.95895 12.7051C5.77244 13.9172 5.88142 15.1564 6.27664 16.3173C6.67186 17.4783 7.34162 18.5266 8.22895 19.3731L9.87095 21.0121L17.404 28.5451L17.422 28.5641L17.441 28.5821L22.933 34.0741C23.4309 34.573 24.0568 34.9249 24.7419 35.091C25.4269 35.2572 26.1445 35.2312 26.8157 35.0158C27.4869 34.8005 28.0857 34.4042 28.5462 33.8706C29.0067 33.3369 29.3111 32.6866 29.426 31.9911C30.2145 31.8589 30.9422 31.484 31.5075 30.9187C32.0729 30.3533 32.4478 29.6256 32.58 28.8371C33.4753 28.6877 34.2888 28.226 34.876 27.5338C35.4633 26.8417 35.7864 25.9638 35.788 25.0561H35.789ZM2.65395 6.81411C2.44736 6.60487 2.33151 6.32266 2.33151 6.02861C2.33151 5.73456 2.44736 5.45235 2.65395 5.24311L5.83195 2.06411C6.04119 1.85751 6.3234 1.74167 6.61745 1.74167C6.9115 1.74167 7.19371 1.85751 7.40295 2.06411L9.03395 3.69411L4.28395 8.44511L2.65395 6.81411ZM7.31595 12.7811C7.38595 11.6311 7.45295 10.5451 6.64895 9.74111L5.77895 8.87111L9.46295 5.18911L10.333 6.05911C11.133 6.85911 12.223 6.79611 13.373 6.72611C14.3923 6.55228 15.4387 6.63244 16.4197 6.95949C17.4007 7.28653 18.2859 7.85038 18.997 8.60111L20.16 9.76411L18.071 11.8571C16.6308 12.0077 15.2862 12.6486 14.2623 13.6725C13.2385 14.6964 12.5975 16.041 12.447 17.4811L10.354 19.5701L9.19095 18.4071C8.43991 17.6958 7.87588 16.8103 7.54883 15.8289C7.22177 14.8476 7.14178 13.8007 7.31595 12.7811ZM32.559 27.4541C32.4108 26.7131 32.0461 26.0327 31.511 25.4991C31.3829 25.3753 31.2113 25.3067 31.0331 25.308C30.8549 25.3094 30.6844 25.3806 30.5582 25.5064C30.4321 25.6322 30.3603 25.8025 30.3584 25.9807C30.3564 26.1588 30.4245 26.3306 30.548 26.4591C30.7778 26.6889 30.9601 26.9617 31.0844 27.262C31.2088 27.5623 31.2728 27.8841 31.2728 28.2091C31.2728 28.5341 31.2088 28.8559 31.0844 29.1562C30.9601 29.4565 30.7778 29.7293 30.548 29.9591C30.3181 30.1889 30.0453 30.3712 29.745 30.4956C29.4448 30.62 29.123 30.684 28.798 30.684C28.4729 30.684 28.1511 30.62 27.8509 30.4956C27.5506 30.3712 27.2778 30.1889 27.048 29.9591C26.9851 29.8941 26.91 29.8424 26.827 29.8067C26.7439 29.7711 26.6546 29.7525 26.5643 29.7518C26.4739 29.7511 26.3843 29.7684 26.3008 29.8027C26.2172 29.837 26.1413 29.8877 26.0775 29.9517C26.0137 30.0156 25.9633 30.0917 25.9292 30.1754C25.8952 30.2591 25.8781 30.3487 25.8791 30.4391C25.8801 30.5294 25.899 30.6187 25.9349 30.7016C25.9708 30.7846 26.0228 30.8595 26.088 30.9221C26.6215 31.4572 27.3019 31.8219 28.043 31.9701C27.9363 32.3944 27.719 32.7828 27.4132 33.0957C27.1073 33.4086 26.724 33.6347 26.3022 33.7509C25.8804 33.8671 25.4353 33.8693 25.0124 33.7573C24.5895 33.6452 24.2039 33.4229 23.895 33.1131L18.871 28.0811L20.965 25.9871C22.4033 25.8367 23.7463 25.1966 24.7689 24.174C25.7915 23.1514 26.4316 21.8084 26.582 20.3701L28.671 18.2811L33.7 23.3101C34.0098 23.619 34.2321 24.0046 34.3441 24.4275C34.4562 24.8505 34.4539 25.2955 34.3377 25.7173C34.2215 26.1391 33.9954 26.5225 33.6826 26.8283C33.3697 27.1342 32.9813 27.3515 32.557 27.4581L32.559 27.4541Z" fill="#1BCDFB"/>
<path d="M20.946 14.8561C20.8828 14.7929 20.8078 14.7428 20.7253 14.7086C20.6428 14.6744 20.5543 14.6567 20.465 14.6567C20.3756 14.6567 20.2872 14.6744 20.2046 14.7086C20.1221 14.7428 20.0471 14.7929 19.984 14.8561L15.523 19.3171C15.3954 19.4446 15.3237 19.6177 15.3237 19.7981C15.3237 19.9785 15.3954 20.1515 15.523 20.2791C15.6505 20.4067 15.8236 20.4783 16.004 20.4783C16.1844 20.4783 16.3574 20.4067 16.485 20.2791L20.946 15.8181C21.0092 15.7549 21.0593 15.6799 21.0935 15.5974C21.1277 15.5149 21.1453 15.4264 21.1453 15.3371C21.1453 15.2477 21.1277 15.1593 21.0935 15.0768C21.0593 14.9942 21.0092 14.9192 20.946 14.8561Z" fill="#1BCDFB"/>
<path d="M22.297 17.169L17.836 21.63C17.7728 21.6932 17.7227 21.7682 17.6885 21.8507C17.6543 21.9332 17.6367 22.0217 17.6367 22.111C17.6367 22.2004 17.6543 22.2888 17.6885 22.3714C17.7227 22.4539 17.7728 22.5289 17.836 22.592C17.8991 22.6552 17.9741 22.7053 18.0566 22.7395C18.1392 22.7737 18.2276 22.7913 18.317 22.7913C18.4063 22.7913 18.4947 22.7737 18.5773 22.7395C18.6598 22.7053 18.7348 22.6552 18.7979 22.592L23.2619 18.128C23.3895 18.0005 23.4612 17.8274 23.4612 17.647C23.4612 17.4666 23.3895 17.2936 23.2619 17.166C23.1344 17.0385 22.9614 16.9668 22.7809 16.9668C22.6005 16.9668 22.4275 17.0385 22.3 17.166L22.297 17.169Z" fill="#1BCDFB"/>
<path d="M24.1139 13.78C24.1769 13.8431 24.2517 13.8932 24.3341 13.9274C24.4164 13.9616 24.5047 13.9792 24.5939 13.9792C24.6831 13.9792 24.7714 13.9616 24.8538 13.9274C24.9361 13.8932 25.0109 13.8431 25.0739 13.78C25.169 13.6847 25.2337 13.5634 25.2599 13.4313C25.2861 13.2992 25.2725 13.1624 25.2209 13.038C25.1694 12.9136 25.0821 12.8074 24.9701 12.7326C24.8582 12.6578 24.7265 12.6179 24.5919 12.6179C24.4573 12.6179 24.3257 12.6578 24.2137 12.7326C24.1017 12.8074 24.0144 12.9136 23.9629 13.038C23.9113 13.1624 23.8977 13.2992 23.9239 13.4313C23.9501 13.5634 24.0148 13.6847 24.1099 13.78H24.1139Z" fill="#1BCDFB"/>
</svg>
