<svg width="19" height="19" viewBox="0 0 19 19" fill="none" xmlns="http://www.w3.org/2000/svg">
<path d="M18.8262 6.33408C18.7823 6.28971 18.7288 6.25607 18.6699 6.23578C18.6109 6.21548 18.548 6.20908 18.4862 6.21708H13.6442V4.08208C13.6279 3.07715 13.2173 2.11887 12.5009 1.41395C11.7845 0.709033 10.8197 0.313965 9.81465 0.313965C8.80959 0.313965 7.84481 0.709033 7.1284 1.41395C6.412 2.11887 6.00139 3.07715 5.98515 4.08208V6.21708H1.14115C1.00615 6.21708 0.871155 6.21708 0.803155 6.33008C0.757007 6.37305 0.722182 6.42675 0.701772 6.48641C0.681361 6.54607 0.675997 6.60985 0.686155 6.67208L2.37615 15.9081C2.4905 16.533 2.81782 17.0989 3.30242 17.5097C3.78702 17.9205 4.39897 18.1507 5.03415 18.1611H14.5862C15.2232 18.1453 15.8354 17.9105 16.3196 17.4961C16.8038 17.0817 17.1303 16.5131 17.2442 15.8861L18.9342 6.67208C18.9448 6.61121 18.9405 6.54867 18.9217 6.48982C18.9029 6.43096 18.8701 6.37753 18.8262 6.33408ZM6.88615 4.08208C6.90033 3.31476 7.2151 2.58367 7.76276 2.04604C8.31042 1.50841 9.04721 1.2072 9.81465 1.2072C10.5821 1.2072 11.3189 1.50841 11.8665 2.04604C12.4142 2.58367 12.729 3.31476 12.7432 4.08208V6.21708H6.88615V4.08208ZM16.3482 15.7741C16.2747 16.1888 16.0581 16.5646 15.7362 16.8361C15.4143 17.1076 15.0073 17.2576 14.5862 17.2601H5.03915C4.61956 17.2556 4.21474 17.1046 3.89465 16.8332C3.57456 16.5619 3.35933 16.1873 3.28615 15.7741L1.68615 7.12308H17.9472L16.3482 15.7741Z" fill="#111111"/>
<path d="M13.1941 11.516C13.3137 11.516 13.4285 11.4685 13.513 11.3839C13.5976 11.2993 13.6451 11.1846 13.6451 11.065V9.71298C13.6375 9.59882 13.5868 9.49182 13.5032 9.41365C13.4197 9.33548 13.3095 9.29199 13.1951 9.29199C13.0807 9.29199 12.9706 9.33548 12.887 9.41365C12.8035 9.49182 12.7527 9.59882 12.7451 9.71298V11.065C12.7451 11.1842 12.7923 11.2987 12.8765 11.3832C12.9606 11.4677 13.0749 11.5154 13.1941 11.516Z" fill="#111111"/>
<path d="M6.43607 11.516C6.55568 11.516 6.67039 11.4685 6.75497 11.3839C6.83955 11.2993 6.88706 11.1846 6.88706 11.065V9.71298C6.87945 9.59882 6.82872 9.49182 6.74517 9.41365C6.66162 9.33548 6.55148 9.29199 6.43707 9.29199C6.32265 9.29199 6.21251 9.33548 6.12895 9.41365C6.0454 9.49182 5.99468 9.59882 5.98706 9.71298V11.065C5.98706 11.1842 6.03431 11.2987 6.11845 11.3832C6.2026 11.4677 6.3168 11.5154 6.43607 11.516Z" fill="#111111"/>
</svg>
