<svg width="62" height="60" viewBox="0 0 62 60" fill="none" xmlns="http://www.w3.org/2000/svg">
<path d="M4.692 0H57.308C58.3451 0.0624161 59.3154 0.532569 60.0071 1.30783C60.6988 2.0831 61.0557 3.10051 61 4.138V55.862C61.0557 56.8995 60.6988 57.9169 60.0071 58.6922C59.3154 59.4674 58.3451 59.9376 57.308 60H4.692C3.65489 59.9376 2.68458 59.4674 1.99288 58.6922C1.30117 57.9169 0.944244 56.8995 0.999997 55.862V4.138C0.944244 3.10051 1.30117 2.0831 1.99288 1.30783C2.68458 0.532569 3.65489 0.0624161 4.692 0V0Z" fill="white"/>
<path d="M46.666 12H14.965C14.7068 12.0001 14.4512 12.0511 14.2127 12.15C13.9742 12.249 13.7576 12.3939 13.5751 12.5765C13.3927 12.7592 13.2479 12.976 13.1493 13.2146C13.0506 13.4531 12.9999 13.7088 13 13.967V45.667C13.0001 45.9252 13.0511 46.1808 13.15 46.4193C13.249 46.6578 13.3939 46.8744 13.5765 47.0569C13.7592 47.2393 13.976 47.3841 14.2146 47.4827C14.4531 47.5814 14.7088 47.6321 14.967 47.632H46.667C46.9253 47.6321 47.181 47.5814 47.4197 47.4826C47.6583 47.3839 47.8752 47.2391 48.0578 47.0565C48.2405 46.874 48.3854 46.6572 48.4843 46.4186C48.5831 46.18 48.634 45.9243 48.634 45.666V13.965C48.6339 13.7067 48.5829 13.451 48.4839 13.2125C48.3849 12.9739 48.2399 12.7572 48.0571 12.5748C47.8744 12.3923 47.6574 12.2476 47.4187 12.149C47.18 12.0504 46.9243 11.9997 46.666 12Z" fill="#4267B2"/>
<path d="M37.606 47.6331V33.8571H42.252L42.952 28.4631H37.606V25.0241C37.606 23.4661 38.039 22.4041 40.273 22.4041H43.104V17.5931C41.7259 17.447 40.3408 17.3762 38.955 17.3811C34.849 17.3811 32.039 19.8861 32.039 24.4901V28.4571H27.406V33.8571H32.034V47.6371L37.606 47.6331Z" fill="white"/>
</svg>
