<svg width="18" height="18" viewBox="0 0 18 18" fill="none" xmlns="http://www.w3.org/2000/svg">
<path d="M17.3 2.17089H6.63103C6.48428 1.734 6.20403 1.35423 5.82983 1.08517C5.45564 0.816124 5.0064 0.671387 4.54552 0.671387C4.08465 0.671387 3.63541 0.816124 3.26122 1.08517C2.88702 1.35423 2.60677 1.734 2.46002 2.17089H0.798027C0.612375 2.17089 0.434323 2.24464 0.303047 2.37592C0.171772 2.50719 0.0980225 2.68524 0.0980225 2.87089C0.0980225 3.05654 0.171772 3.23459 0.303047 3.36587C0.434323 3.49714 0.612375 3.57089 0.798027 3.57089H2.46303C2.60977 4.00778 2.89002 4.38756 3.26421 4.65661C3.63841 4.92566 4.08764 5.0704 4.54852 5.0704C5.0094 5.0704 5.45865 4.92566 5.83284 4.65661C6.20703 4.38756 6.48728 4.00778 6.63403 3.57089H17.3C17.4857 3.57089 17.6637 3.49714 17.795 3.36587C17.9263 3.23459 18 3.05654 18 2.87089C18 2.68524 17.9263 2.50719 17.795 2.37592C17.6637 2.24464 17.4857 2.17089 17.3 2.17089ZM4.54903 3.67089C4.3908 3.67089 4.23613 3.62397 4.10457 3.53606C3.97301 3.44816 3.87047 3.32322 3.80992 3.17704C3.74937 3.03086 3.73353 2.87001 3.7644 2.71482C3.79526 2.55964 3.87146 2.41709 3.98334 2.30521C4.09522 2.19332 4.23777 2.11713 4.39295 2.08627C4.54814 2.0554 4.70899 2.07124 4.85517 2.13179C5.00135 2.19234 5.1263 2.29488 5.2142 2.42644C5.30211 2.558 5.34902 2.71266 5.34902 2.87089C5.34902 3.08306 5.26474 3.28655 5.11471 3.43658C4.96468 3.58661 4.7612 3.67089 4.54903 3.67089Z" fill="white"/>
<path d="M17.3 8.17188H15.631C15.4843 7.73498 15.204 7.3552 14.8298 7.08615C14.4556 6.8171 14.0064 6.67236 13.5455 6.67236C13.0846 6.67236 12.6354 6.8171 12.2612 7.08615C11.887 7.3552 11.6068 7.73498 11.46 8.17188H0.798027C0.706102 8.17188 0.615072 8.18998 0.530144 8.22516C0.445216 8.26034 0.368048 8.31189 0.303047 8.37689C0.238046 8.44189 0.186484 8.51906 0.151306 8.60399C0.116128 8.68892 0.0980225 8.77995 0.0980225 8.87187C0.0980225 8.9638 0.116128 9.05483 0.151306 9.13976C0.186484 9.22468 0.238046 9.30185 0.303047 9.36685C0.368048 9.43185 0.445216 9.48341 0.530144 9.51859C0.615072 9.55376 0.706102 9.57187 0.798027 9.57187H11.464C11.6108 10.0088 11.891 10.3885 12.2652 10.6576C12.6394 10.9266 13.0886 11.0714 13.5495 11.0714C14.0104 11.0714 14.4596 10.9266 14.8338 10.6576C15.208 10.3885 15.4883 10.0088 15.635 9.57187H17.3C17.392 9.57187 17.483 9.55376 17.5679 9.51859C17.6528 9.48341 17.73 9.43185 17.795 9.36685C17.86 9.30185 17.9116 9.22468 17.9467 9.13976C17.9819 9.05483 18 8.9638 18 8.87187C18 8.77995 17.9819 8.68892 17.9467 8.60399C17.9116 8.51906 17.86 8.44189 17.795 8.37689C17.73 8.31189 17.6528 8.26034 17.5679 8.22516C17.483 8.18998 17.392 8.17188 17.3 8.17188ZM13.55 9.67188C13.3918 9.67188 13.2371 9.62495 13.1056 9.53705C12.974 9.44914 12.8715 9.32421 12.8109 9.17802C12.7504 9.03184 12.7345 8.87099 12.7654 8.71581C12.7963 8.56062 12.8725 8.41806 12.9843 8.30618C13.0962 8.1943 13.2388 8.11812 13.394 8.08725C13.5491 8.05638 13.71 8.07222 13.8562 8.13277C14.0024 8.19332 14.1273 8.29585 14.2152 8.42741C14.3031 8.55897 14.35 8.71365 14.35 8.87187C14.35 8.97701 14.3293 9.08113 14.289 9.17825C14.2488 9.27538 14.1897 9.36361 14.1154 9.43791C14.041 9.51221 13.9527 9.57112 13.8555 9.61127C13.7583 9.65141 13.6542 9.67201 13.549 9.67188H13.55Z" fill="white"/>
<path d="M17.3 14.1719H9.63103C9.48428 13.735 9.20403 13.3552 8.82983 13.0862C8.45564 12.8171 8.0064 12.6724 7.54552 12.6724C7.08465 12.6724 6.63541 12.8171 6.26122 13.0862C5.88702 13.3552 5.60677 13.735 5.46002 14.1719H0.798027C0.612375 14.1719 0.434323 14.2456 0.303047 14.3769C0.171772 14.5082 0.0980225 14.6862 0.0980225 14.8719C0.0980225 15.0575 0.171772 15.2356 0.303047 15.3669C0.434323 15.4981 0.612375 15.5719 0.798027 15.5719H5.46303C5.60977 16.0088 5.89002 16.3885 6.26421 16.6576C6.63841 16.9266 7.08764 17.0714 7.54852 17.0714C8.0094 17.0714 8.45865 16.9266 8.83284 16.6576C9.20703 16.3885 9.48728 16.0088 9.63403 15.5719H17.299C17.4847 15.5719 17.6627 15.4981 17.794 15.3669C17.9253 15.2356 17.999 15.0575 17.999 14.8719C17.999 14.6862 17.9253 14.5082 17.794 14.3769C17.6627 14.2456 17.4847 14.1719 17.299 14.1719H17.3ZM7.54903 15.6719C7.3908 15.6719 7.23613 15.625 7.10457 15.537C6.97301 15.4491 6.87047 15.3242 6.80992 15.178C6.74937 15.0319 6.73353 14.871 6.7644 14.7158C6.79526 14.5606 6.87146 14.4181 6.98334 14.3062C7.09522 14.1943 7.23777 14.1181 7.39295 14.0872C7.54814 14.0564 7.70899 14.0722 7.85517 14.1328C8.00135 14.1933 8.1263 14.2959 8.2142 14.4274C8.30211 14.559 8.34902 14.7137 8.34902 14.8719C8.34902 14.9769 8.32833 15.081 8.28812 15.178C8.24792 15.2751 8.18899 15.3633 8.11471 15.4376C8.04042 15.5118 7.95223 15.5708 7.85517 15.611C7.75811 15.6512 7.65408 15.6719 7.54903 15.6719Z" fill="white"/>
</svg>
