<svg width="62" height="60" viewBox="0 0 62 60" fill="none" xmlns="http://www.w3.org/2000/svg">
<path d="M4.692 0H57.308C58.3451 0.0624161 59.3154 0.532569 60.0071 1.30783C60.6988 2.0831 61.0557 3.10051 61 4.138V55.862C61.0557 56.8995 60.6988 57.9169 60.0071 58.6922C59.3154 59.4674 58.3451 59.9376 57.308 60H4.692C3.65489 59.9376 2.68458 59.4674 1.99288 58.6922C1.30117 57.9169 0.944244 56.8995 0.999997 55.862V4.138C0.944244 3.10051 1.30117 2.0831 1.99288 1.30783C2.68458 0.532569 3.65489 0.0624161 4.692 0V0Z" fill="white"/>
<path d="M42.448 43.546C40.4737 45.2459 38.1487 46.4895 35.6389 47.1882C33.129 47.887 30.4959 48.0236 27.9272 47.5885C25.3584 47.1533 22.9173 46.1571 20.7776 44.6707C18.6379 43.1843 16.8523 41.2443 15.548 38.989L16.711 33.6259L21.868 32.6689C22.4673 34.6034 23.668 36.2962 25.2956 37.5012C26.9233 38.7062 28.8929 39.3605 30.918 39.369C32.9116 39.3758 34.8549 38.7428 36.462 37.563L41.418 38.319L42.448 43.546Z" fill="#59C36A"/>
<path d="M42.446 43.5468L41.417 38.3177L36.461 37.5618C34.8542 38.7414 32.9113 39.3744 30.918 39.3678V47.8368C35.1469 47.8142 39.2311 46.2943 42.446 43.5468Z" fill="#00A66C"/>
<path d="M21.469 29.9179C21.4707 30.8493 21.6054 31.7756 21.869 32.6689L15.549 38.9889C13.8828 36.2566 13.0014 33.1182 13.0014 29.9179C13.0014 26.7177 13.8828 23.5792 15.549 20.8469L20.622 21.7199L21.87 27.1669C21.6061 28.0602 21.471 28.9865 21.469 29.9179Z" fill="#FFDA2D"/>
<path d="M48.837 29.9188C48.8259 32.5182 48.2485 35.084 47.145 37.4375C46.0414 39.7911 44.4382 41.8759 42.447 43.5468L36.463 37.5628C37.7043 36.6722 38.7069 35.4893 39.382 34.1188H30.919C30.7807 34.1201 30.6436 34.0939 30.5156 34.0416C30.3876 33.9893 30.2713 33.912 30.1736 33.8142C30.0758 33.7165 29.9985 33.6002 29.9462 33.4722C29.8939 33.3442 29.8677 33.2071 29.869 33.0688V26.7688C29.8677 26.6305 29.8939 26.4934 29.9462 26.3654C29.9985 26.2374 30.0758 26.1211 30.1736 26.0234C30.2713 25.9256 30.3876 25.8483 30.5156 25.796C30.6436 25.7437 30.7807 25.7175 30.919 25.7188H47.494C47.7397 25.7171 47.978 25.8028 48.1665 25.9605C48.355 26.1182 48.4813 26.3376 48.523 26.5798C48.7325 27.6804 48.8376 28.7984 48.837 29.9188Z" fill="#4086F4"/>
<path d="M39.38 34.1188C38.7049 35.4893 37.7023 36.6722 36.461 37.5628L42.445 43.5468C44.8803 41.5187 46.7281 38.8755 47.7964 35.8918C48.8648 32.9081 49.1146 29.6927 48.52 26.5798C48.4783 26.3376 48.352 26.1181 48.1635 25.9604C47.9751 25.8028 47.7367 25.7171 47.491 25.7188H30.918V34.1188H39.38Z" fill="#4175DF"/>
<path d="M42.741 16.9999C42.7468 17.1425 42.7238 17.2849 42.6733 17.4184C42.6228 17.5519 42.5458 17.6738 42.447 17.7769L37.953 22.2499C37.7774 22.4312 37.5413 22.5416 37.2895 22.5601C37.0378 22.5785 36.7881 22.5037 36.588 22.3499C34.9542 21.1193 32.9634 20.4557 30.918 20.4599C28.8929 20.4683 26.9233 21.1227 25.2956 22.3276C23.668 23.5326 22.4673 25.2254 21.868 27.1599L15.548 20.8469C16.847 18.5989 18.6245 16.6642 20.7545 15.1796C22.8844 13.695 25.3148 12.697 27.8734 12.2561C30.432 11.8153 33.0562 11.9425 35.5602 12.6287C38.0641 13.3149 40.3866 14.5433 42.363 16.2269C42.4747 16.3237 42.5658 16.4421 42.6307 16.5749C42.6957 16.7077 42.7332 16.8522 42.741 16.9999Z" fill="#FF641A"/>
<path d="M36.587 22.3588C36.7871 22.5126 37.0368 22.5874 37.2886 22.5689C37.5403 22.5505 37.7764 22.4401 37.952 22.2588L42.446 17.7858C42.546 17.6817 42.6236 17.5583 42.6742 17.4231C42.7247 17.288 42.7471 17.1439 42.74 16.9998C42.7327 16.8514 42.6955 16.7061 42.6305 16.5726C42.5655 16.439 42.4742 16.32 42.362 16.2228C39.161 13.5159 35.11 12.0211 30.918 11.9998V20.4688C32.963 20.4648 34.9535 21.1284 36.587 22.3588Z" fill="#F03800"/>
</svg>
