<svg width="17" height="16" viewBox="0 0 17 16" fill="none" xmlns="http://www.w3.org/2000/svg">
<path d="M7.75493 0.792021C7.75493 0.700522 7.71858 0.61277 7.65388 0.54807C7.58918 0.48337 7.50143 0.447021 7.40993 0.447021H1.17093C1.07943 0.447021 0.991676 0.48337 0.926976 0.54807C0.862276 0.61277 0.825928 0.700522 0.825928 0.792021V7.03202C0.825928 7.12352 0.862276 7.21127 0.926976 7.27597C0.991676 7.34067 1.07943 7.37702 1.17093 7.37702H7.41093C7.50243 7.37702 7.59018 7.34067 7.65488 7.27597C7.71958 7.21127 7.75593 7.12352 7.75593 7.03202L7.75493 0.792021ZM7.06593 6.68702H1.51493V1.13602H7.06593V6.68702Z" fill="black"/>
<path d="M16.3389 0.792021C16.3389 0.700522 16.3026 0.61277 16.2379 0.54807C16.1732 0.48337 16.0855 0.447021 15.994 0.447021H9.75394C9.66244 0.447021 9.57468 0.48337 9.50998 0.54807C9.44528 0.61277 9.40894 0.700522 9.40894 0.792021V7.03202C9.40894 7.12352 9.44528 7.21127 9.50998 7.27597C9.57468 7.34067 9.66244 7.37702 9.75394 7.37702H15.994C16.0393 7.37702 16.0841 7.3681 16.126 7.35076C16.1678 7.33342 16.2058 7.30801 16.2379 7.27597C16.2699 7.24394 16.2953 7.2059 16.3127 7.16405C16.33 7.12219 16.3389 7.07733 16.3389 7.03202V0.792021ZM15.6499 6.68702H10.0999V1.13602H15.6499V6.68702Z" fill="black"/>
<path d="M7.75493 9.37601C7.75493 9.28451 7.71858 9.19675 7.65388 9.13205C7.58918 9.06735 7.50143 9.03101 7.40993 9.03101H1.17093C1.07943 9.03101 0.991676 9.06735 0.926976 9.13205C0.862276 9.19675 0.825928 9.28451 0.825928 9.37601V15.616C0.825928 15.6613 0.834851 15.7062 0.852189 15.748C0.869527 15.7899 0.89494 15.8279 0.926976 15.86C0.959012 15.892 0.997045 15.9174 1.0389 15.9348C1.08076 15.9521 1.12562 15.961 1.17093 15.961H7.41093C7.45623 15.961 7.5011 15.9521 7.54295 15.9348C7.58481 15.9174 7.62284 15.892 7.65488 15.86C7.68692 15.8279 7.71233 15.7899 7.72967 15.748C7.747 15.7062 7.75593 15.6613 7.75593 15.616L7.75493 9.37601ZM7.06593 15.236H1.51493V9.72H7.06593V15.236Z" fill="black"/>
<path d="M16.3389 9.37601C16.3389 9.3307 16.33 9.28585 16.3127 9.24399C16.2953 9.20213 16.2699 9.16409 16.2379 9.13205C16.2058 9.10001 16.1678 9.07462 16.126 9.05728C16.0841 9.03994 16.0393 9.03101 15.994 9.03101H9.75394C9.66244 9.03101 9.57468 9.06735 9.50998 9.13205C9.44528 9.19675 9.40894 9.28451 9.40894 9.37601V15.616C9.40894 15.6613 9.41787 15.7062 9.43521 15.748C9.45255 15.7899 9.47794 15.8279 9.50998 15.86C9.54202 15.892 9.58006 15.9174 9.62192 15.9348C9.66378 15.9521 9.70863 15.961 9.75394 15.961H15.994C16.0393 15.961 16.0841 15.9521 16.126 15.9348C16.1678 15.9174 16.2058 15.892 16.2379 15.86C16.2699 15.8279 16.2953 15.7899 16.3127 15.748C16.33 15.7062 16.3389 15.6613 16.3389 15.616V9.37601ZM15.6499 15.236H10.0999V9.72H15.6499V15.236Z" fill="black"/>
</svg>
