<svg width="12" height="10" viewBox="0 0 12 10" fill="none" xmlns="http://www.w3.org/2000/svg">
<g opacity="0.5">
<path d="M5.92711 9.36808C5.77737 9.36815 5.63272 9.31378 5.52011 9.21508C5.09511 8.84308 4.68511 8.49408 4.32011 8.18508C3.38419 7.43835 2.51003 6.61736 1.70611 5.73008C1.05755 5.03062 0.68636 4.11864 0.662113 3.16508C0.647814 2.3374 0.945959 1.53473 1.49711 0.917078C1.7647 0.625431 2.09047 0.393136 2.45339 0.235186C2.81631 0.0772368 3.20832 -0.002856 3.60411 7.77785e-05C4.20558 -0.00333875 4.7903 0.198034 5.26211 0.571078C5.51751 0.771146 5.74281 1.00689 5.93111 1.27108C6.11942 1.00689 6.34472 0.771146 6.60011 0.571078C7.06978 0.199747 7.65139 -0.00152448 8.25011 7.77785e-05C8.6459 -0.00279387 9.03788 0.0773271 9.4008 0.235272C9.76371 0.393218 10.0895 0.62548 10.3571 0.917078C10.9083 1.53473 11.2064 2.3374 11.1921 3.16508C11.1679 4.11864 10.7967 5.03062 10.1481 5.73008C9.34417 6.61702 8.47 7.43768 7.53411 8.18408C7.17211 8.49308 6.76111 8.84308 6.33411 9.21608C6.22146 9.3147 6.07683 9.36906 5.92711 9.36908V9.36808ZM3.60411 0.617078C3.29371 0.614597 2.98623 0.677211 2.70151 0.800881C2.4168 0.924551 2.16117 1.10653 1.95111 1.33508C1.50507 1.83894 1.26514 2.4923 1.27911 3.16508C1.30229 3.97502 1.62263 4.74812 2.17911 5.33708C2.96209 6.19555 3.8121 6.99039 4.72111 7.71408C5.08411 8.02408 5.49611 8.37408 5.92111 8.74908C6.35211 8.37408 6.76411 8.02208 7.12811 7.71208C8.03811 6.98882 8.88913 6.19431 9.67311 5.33608C10.2296 4.74712 10.5499 3.97402 10.5731 3.16408C10.5871 2.4913 10.3472 1.83793 9.90111 1.33408C9.6912 1.10596 9.43585 0.924317 9.1515 0.80083C8.86716 0.677343 8.56011 0.61475 8.25011 0.617078C7.78667 0.615531 7.33644 0.771369 6.97311 1.05908C6.68739 1.28789 6.44606 1.56718 6.26111 1.88308C6.22666 1.94111 6.17771 1.98918 6.11907 2.02256C6.06042 2.05595 5.9941 2.07351 5.92661 2.07351C5.85913 2.07351 5.79281 2.05595 5.73416 2.02256C5.67551 1.98918 5.62656 1.94111 5.59211 1.88308C5.40722 1.56714 5.16589 1.28784 4.88011 1.05908C4.51706 0.771583 4.06721 0.615758 3.60411 0.617078Z" fill="#111111"/>
<path d="M5.92711 9.36808C5.77737 9.36815 5.63272 9.31378 5.52011 9.21508C5.09511 8.84308 4.68511 8.49408 4.32011 8.18508C3.38419 7.43835 2.51003 6.61736 1.70611 5.73008C1.05755 5.03062 0.68636 4.11864 0.662113 3.16508C0.647814 2.3374 0.945959 1.53473 1.49711 0.917078C1.7647 0.625431 2.09047 0.393136 2.45339 0.235186C2.81631 0.0772368 3.20832 -0.002856 3.60411 7.77785e-05C4.20558 -0.00333875 4.7903 0.198034 5.26211 0.571078C5.51751 0.771146 5.74281 1.00689 5.93111 1.27108C6.11942 1.00689 6.34472 0.771146 6.60011 0.571078C7.06978 0.199747 7.65139 -0.00152448 8.25011 7.77785e-05C8.6459 -0.00279387 9.03788 0.0773271 9.4008 0.235272C9.76371 0.393218 10.0895 0.62548 10.3571 0.917078C10.9083 1.53473 11.2064 2.3374 11.1921 3.16508C11.1679 4.11864 10.7967 5.03062 10.1481 5.73008C9.34417 6.61702 8.47 7.43768 7.53411 8.18408C7.17211 8.49308 6.76111 8.84308 6.33411 9.21608C6.22146 9.3147 6.07683 9.36906 5.92711 9.36908V9.36808ZM3.60411 0.617078C3.29371 0.614597 2.98623 0.677211 2.70151 0.800881C2.4168 0.924551 2.16117 1.10653 1.95111 1.33508C1.50507 1.83894 1.26514 2.4923 1.27911 3.16508C1.30229 3.97502 1.62263 4.74812 2.17911 5.33708C2.96209 6.19555 3.8121 6.99039 4.72111 7.71408C5.08411 8.02408 5.49611 8.37408 5.92111 8.74908C6.35211 8.37408 6.76411 8.02208 7.12811 7.71208C8.03811 6.98882 8.88913 6.19431 9.67311 5.33608C10.2296 4.74712 10.5499 3.97402 10.5731 3.16408C10.5871 2.4913 10.3472 1.83793 9.90111 1.33408C9.6912 1.10596 9.43585 0.924317 9.1515 0.80083C8.86716 0.677343 8.56011 0.61475 8.25011 0.617078C7.78667 0.615531 7.33644 0.771369 6.97311 1.05908C6.68739 1.28789 6.44606 1.56718 6.26111 1.88308C6.22666 1.94111 6.17771 1.98918 6.11907 2.02256C6.06042 2.05595 5.9941 2.07351 5.92661 2.07351C5.85913 2.07351 5.79281 2.05595 5.73416 2.02256C5.67551 1.98918 5.62656 1.94111 5.59211 1.88308C5.40722 1.56714 5.16589 1.28784 4.88011 1.05908C4.51706 0.771583 4.06721 0.615758 3.60411 0.617078Z" fill="black" fill-opacity="0.2"/>
</g>
</svg>
