<svg width="22" height="16" viewBox="0 0 22 16" fill="none" xmlns="http://www.w3.org/2000/svg">
<path d="M14.693 1.02204C14.549 0.881888 14.3558 0.803844 14.1548 0.804694C13.9539 0.805545 13.7613 0.885224 13.6185 1.02659C13.4757 1.16796 13.394 1.35973 13.3911 1.56066C13.3883 1.76159 13.4643 1.95563 13.603 2.10104L19.133 7.62904H0.896019C0.795672 7.62851 0.696216 7.64789 0.603406 7.68604C0.510595 7.7242 0.426271 7.78038 0.355315 7.85134C0.284358 7.9223 0.228176 8.00662 0.190019 8.09943C0.151863 8.19224 0.132489 8.2917 0.133019 8.39204C0.132228 8.49298 0.151344 8.59309 0.189273 8.68663C0.227202 8.78018 0.2832 8.86533 0.354065 8.93722C0.42493 9.0091 0.50927 9.06631 0.602264 9.10558C0.695257 9.14484 0.795079 9.16539 0.896019 9.16604H19.133L13.603 14.681C13.4612 14.827 13.3818 15.0225 13.3818 15.226C13.3818 15.4296 13.4612 15.6251 13.603 15.771C13.6741 15.8436 13.7589 15.9012 13.8524 15.9405C13.946 15.9798 14.0465 16.0001 14.148 16.0001C14.2495 16.0001 14.35 15.9798 14.4436 15.9405C14.5372 15.9012 14.622 15.8436 14.693 15.771L21.526 8.93804C21.5984 8.8681 21.6561 8.78428 21.6954 8.69159C21.7347 8.5989 21.755 8.49924 21.755 8.39854C21.755 8.29785 21.7347 8.19819 21.6954 8.1055C21.6561 8.01281 21.5984 7.92899 21.526 7.85904L14.693 1.02204Z" fill="white"/>
</svg>
