<svg width="18" height="19" viewBox="0 0 18 19" fill="none" xmlns="http://www.w3.org/2000/svg">
<path d="M8.78798 0.850099C7.14597 0.849174 5.5376 1.31552 4.15077 2.19467C2.76393 3.07381 1.65591 4.32945 0.956133 5.81488C0.256359 7.30032 -0.006267 8.95421 0.198937 10.5833C0.404141 12.2125 1.0687 13.7496 2.11498 15.0151C2.11498 15.0151 2.11498 15.0251 2.12198 15.0291C3.00177 16.0909 4.12256 16.9272 5.39098 17.4681L5.43398 17.4871C5.53398 17.5301 5.63398 17.5691 5.73998 17.6081L5.86198 17.6541C5.95065 17.6861 6.03965 17.7164 6.12898 17.7451L6.30198 17.7991C6.38131 17.8224 6.46098 17.8451 6.54098 17.8671C6.61098 17.8861 6.68198 17.9041 6.75298 17.9211C6.82398 17.9381 6.89698 17.9561 6.96898 17.9711C7.04098 17.9861 7.13098 18.0041 7.21298 18.0191C7.27898 18.0311 7.34398 18.0441 7.41298 18.0541C7.50398 18.0691 7.59498 18.0801 7.68698 18.0921C7.74598 18.1001 7.80498 18.1081 7.86398 18.1151C7.96398 18.1261 8.07298 18.1341 8.17798 18.1411C8.22698 18.1411 8.27798 18.1501 8.32398 18.1521C8.47731 18.1608 8.63198 18.1651 8.78798 18.1651C8.94398 18.1651 9.09898 18.1651 9.25298 18.1521C9.30198 18.1521 9.35298 18.1441 9.39898 18.1411C9.50398 18.1331 9.60898 18.1261 9.71298 18.1151C9.77198 18.1091 9.83098 18.1001 9.88998 18.0921C9.98198 18.0801 10.073 18.0691 10.164 18.0541C10.23 18.0431 10.296 18.0311 10.364 18.0191C10.446 18.0041 10.527 17.9891 10.608 17.9711C10.689 17.9531 10.752 17.9381 10.824 17.9211L11.036 17.8671C11.116 17.8461 11.196 17.8231 11.275 17.7991L11.448 17.7451C11.538 17.7164 11.627 17.6861 11.715 17.6541L11.837 17.6081C11.937 17.5691 12.042 17.5301 12.143 17.4871L12.186 17.4681C13.4543 16.9271 14.5751 16.0908 15.455 15.0291C15.455 15.0291 15.455 15.0191 15.462 15.0151C16.5079 13.7494 17.1721 12.2123 17.3771 10.5832C17.582 8.95409 17.3192 7.30032 16.6194 5.815C15.9196 4.32969 14.8116 3.07414 13.4249 2.19499C12.0381 1.31584 10.4299 0.849388 8.78798 0.850099ZM12.296 16.7841L12.283 16.7901C12.183 16.8401 12.075 16.8901 11.97 16.9321L11.898 16.9631C11.8053 17.0018 11.712 17.0388 11.618 17.0741L11.5 17.1171C11.417 17.1471 11.333 17.1751 11.248 17.2021L11.09 17.2501C11.015 17.2731 10.94 17.2941 10.863 17.3141C10.786 17.3341 10.734 17.3471 10.67 17.3621C10.606 17.3771 10.535 17.3951 10.47 17.4091C10.405 17.4231 10.32 17.4381 10.245 17.4521C10.17 17.4661 10.124 17.4751 10.062 17.4851C9.97698 17.4981 9.89198 17.5091 9.80698 17.5201C9.75298 17.5271 9.69898 17.5351 9.64498 17.5411C9.54498 17.5511 9.44498 17.5581 9.35198 17.5651C9.30798 17.5651 9.26498 17.5731 9.22098 17.5751C9.07831 17.5824 8.93498 17.5864 8.79098 17.5871C8.64698 17.5878 8.50398 17.5838 8.36198 17.5751C8.31798 17.5751 8.27498 17.5681 8.23098 17.5651C8.13098 17.5581 8.03098 17.5511 7.93798 17.5411C7.88298 17.5351 7.82998 17.5271 7.77598 17.5201C7.69098 17.5091 7.60498 17.4991 7.52098 17.4851C7.45998 17.4751 7.39898 17.4631 7.33798 17.4521C7.27698 17.4411 7.18698 17.4251 7.11298 17.4091C7.03898 17.3931 6.97698 17.3781 6.91298 17.3621C6.84898 17.3461 6.78398 17.3311 6.71998 17.3141C6.65598 17.2971 6.56898 17.2721 6.49298 17.2501L6.33098 17.2021C6.24631 17.1748 6.16231 17.1464 6.07898 17.1171L5.96098 17.0741C5.86698 17.0388 5.77365 17.0018 5.68098 16.9631L5.60998 16.9331C5.50398 16.8881 5.39998 16.8411 5.29598 16.7911L5.28298 16.7851C4.28117 16.2991 3.39004 15.6122 2.66498 14.7671C2.94384 13.7511 3.4704 12.8201 4.19746 12.0577C4.92452 11.2952 5.82939 10.7249 6.83098 10.3981C6.87098 10.4231 6.91298 10.4441 6.95398 10.4681L7.02698 10.5091C7.11298 10.5551 7.19998 10.5971 7.28898 10.6361C7.35698 10.6661 7.42798 10.6911 7.49798 10.7171L7.53998 10.7321C8.34783 11.0236 9.23214 11.0236 10.04 10.7321L10.082 10.7171C10.152 10.6911 10.223 10.6661 10.291 10.6361C10.38 10.5981 10.467 10.5551 10.553 10.5091L10.626 10.4681C10.667 10.4451 10.709 10.4231 10.75 10.3981C11.7517 10.7247 12.6568 11.2947 13.3842 12.057C14.1116 12.8193 14.6386 13.7501 14.918 14.7661C14.1916 15.6114 13.2991 16.2983 12.296 16.7841ZM5.61398 7.1981C5.61334 6.6477 5.75584 6.10659 6.02749 5.6279C6.29914 5.1492 6.69061 4.74937 7.16345 4.46767C7.63629 4.18596 8.17427 4.03205 8.72456 4.02105C9.27485 4.01006 9.81855 4.14235 10.3023 4.40494C10.786 4.66753 11.1931 5.0514 11.4837 5.51886C11.7742 5.98632 11.9382 6.5213 11.9596 7.07128C11.9809 7.62127 11.8589 8.16736 11.6055 8.65594C11.352 9.14452 10.9759 9.55879 10.514 9.8581C10.4009 9.93251 10.2829 9.99932 10.161 10.0581L10.118 10.0791C9.6996 10.267 9.24614 10.3642 8.78748 10.3642C8.32882 10.3642 7.87537 10.267 7.45698 10.0791L7.41398 10.0581C7.29198 9.99939 7.17405 9.93257 7.06098 9.8581C6.61716 9.57049 6.2523 9.17649 5.99958 8.71191C5.74686 8.24734 5.61431 7.72696 5.61398 7.1981ZM15.347 14.2171C15.0204 13.2589 14.4885 12.3835 13.7884 11.6522C13.0884 10.9208 12.2371 10.3512 11.294 9.9831C11.8591 9.4761 12.257 8.80958 12.4352 8.07162C12.6134 7.33365 12.5635 6.55898 12.292 5.84999C12.0206 5.141 11.5404 4.53107 10.9149 4.10079C10.2895 3.67051 9.54816 3.44015 8.78898 3.44015C8.02981 3.44015 7.2885 3.67051 6.66303 4.10079C6.03756 4.53107 5.55738 5.141 5.28594 5.84999C5.0145 6.55898 4.96458 7.33365 5.14278 8.07162C5.32098 8.80958 5.71891 9.4761 6.28398 9.9831C5.34091 10.3512 4.48959 10.9208 3.78954 11.6522C3.08948 12.3835 2.55757 13.2589 2.23098 14.2171C1.48867 13.1832 1.0012 11.9886 0.808293 10.7305C0.615388 9.47249 0.722516 8.18667 1.12094 6.97789C1.51937 5.76911 2.19782 4.6716 3.10097 3.77482C4.00413 2.87805 5.10642 2.20741 6.318 1.81756C7.52957 1.42772 8.81613 1.32972 10.0728 1.53154C11.3294 1.73336 12.5206 2.2293 13.5492 2.97892C14.5777 3.72854 15.4146 4.71063 15.9915 5.84511C16.5684 6.97959 16.8691 8.23435 16.869 9.5071C16.8697 11.1983 16.3367 12.8465 15.346 14.2171H15.347Z" fill="#111111"/>
</svg>
